<svg width="167" height="307" viewBox="0 0 167 307" fill="none" xmlns="http://www.w3.org/2000/svg">
<path d="M37.4554 281.676V49.3597H0.174391V0.342005H86.4731V306.185L37.4554 281.676ZM158.91 274.427C154.077 279.259 148.324 281.676 141.65 281.676C134.977 281.676 129.223 279.259 124.391 274.427C119.558 269.594 117.141 263.841 117.141 257.167C117.141 250.493 119.558 244.74 124.391 239.907C129.223 235.074 134.977 232.658 141.65 232.658C148.324 232.658 154.077 235.074 158.91 239.907C163.743 244.74 166.159 250.493 166.159 257.167C166.159 263.841 163.743 269.594 158.91 274.427Z" fill="#E6E6FA"/>
</svg>
