<svg width="472" height="307" viewBox="0 0 472 307" fill="none" xmlns="http://www.w3.org/2000/svg">
<path d="M37.3905 282.169V49.8528H0.10945V0.835169H86.4082V306.678L37.3905 282.169ZM155.738 42.2585C183.354 14.643 216.608 0.835169 255.5 0.835169C294.392 0.835169 327.53 14.643 354.916 42.2585C382.301 69.644 395.994 102.783 395.994 141.675C395.994 180.567 382.301 213.705 354.916 241.091C327.53 268.476 294.392 282.169 255.5 282.169C216.608 282.169 183.354 268.476 155.738 241.091C128.353 213.705 114.66 180.567 114.66 141.675C114.66 102.783 128.353 69.644 155.738 42.2585ZM320.396 76.778C302.446 58.8279 280.814 49.8528 255.5 49.8528C230.185 49.8528 208.553 58.8279 190.603 76.778C172.653 94.7282 163.678 116.36 163.678 141.675C163.678 166.989 172.653 188.621 190.603 206.571C208.553 224.291 230.185 233.151 255.5 233.151C280.814 233.151 302.446 224.291 320.396 206.571C338.346 188.621 347.321 166.989 347.321 141.675C347.321 116.36 338.346 94.7282 320.396 76.778ZM464.262 274.92C459.429 279.753 453.676 282.169 447.002 282.169C440.328 282.169 434.575 279.753 429.742 274.92C424.909 270.087 422.493 264.334 422.493 257.66C422.493 250.986 424.909 245.233 429.742 240.4C434.575 235.568 440.328 233.151 447.002 233.151C453.676 233.151 459.429 235.568 464.262 240.4C469.094 245.233 471.511 250.986 471.511 257.66C471.511 264.334 469.094 270.087 464.262 274.92Z" fill="#E6E6FA"/>
</svg>
