<svg width="270" height="282" viewBox="0 0 270 282" fill="none" xmlns="http://www.w3.org/2000/svg">
<path d="M4.83197 281.676V250.263L129.102 132.206C138.307 123.692 142.91 112.415 142.91 98.3773C142.91 84.7997 138.077 73.2932 128.412 63.8579C118.976 54.1924 107.47 49.3597 93.8922 49.3597C76.6325 49.3597 63.1699 56.4937 53.5044 70.7618H-0.000761038C6.21275 50.2802 17.9494 33.4807 35.2091 20.3633C52.4688 7.01577 72.0299 0.342005 93.8922 0.342005C121.048 0.342005 144.176 9.89239 163.276 28.9932C182.377 48.094 191.928 71.222 191.928 98.3773C191.928 126.223 181.572 149.926 160.86 169.487L94.2374 232.658H192.273V281.676H4.83197ZM261.945 274.427C257.113 279.259 251.359 281.676 244.686 281.676C238.012 281.676 232.259 279.259 227.426 274.427C222.593 269.594 220.177 263.841 220.177 257.167C220.177 250.493 222.593 244.74 227.426 239.907C232.259 235.074 238.012 232.658 244.686 232.658C251.359 232.658 257.113 235.074 261.945 239.907C266.778 244.74 269.195 250.493 269.195 257.167C269.195 263.841 266.778 269.594 261.945 274.427Z" fill="#E6E6FA"/>
</svg>
