<svg width="260" height="282" viewBox="0 0 260 282" fill="none" xmlns="http://www.w3.org/2000/svg">
<path d="M91.3363 281.676C68.7836 281.676 48.9924 274.427 31.9628 259.929C14.9332 245.43 4.57733 227.25 0.895254 205.388H51.2937C54.5155 213.442 59.6934 220.001 66.8275 225.064C74.1916 230.127 82.3612 232.658 91.3363 232.658C103.073 232.658 113.084 228.516 121.368 220.231C129.883 211.946 134.14 201.821 134.14 189.854C134.14 178.117 129.883 168.107 121.368 159.822C113.084 151.307 103.073 147.05 91.3363 147.05H66.8275V98.3773H91.3363C98.0101 98.3773 103.763 95.961 108.596 91.1282C113.429 86.2955 115.845 80.5423 115.845 73.8685C115.845 67.1947 113.429 61.4415 108.596 56.6088C103.763 51.776 98.0101 49.3597 91.3363 49.3597C85.1228 49.3597 79.7147 51.4308 75.1121 55.5732C70.5095 59.7155 67.748 64.7784 66.8275 70.7618H17.8098C18.7303 50.9706 26.2095 34.2862 40.2475 20.7085C54.5155 7.13084 71.5451 0.342005 91.3363 0.342005C111.588 0.342005 128.847 7.5911 143.116 22.0893C157.384 36.3573 164.518 53.6171 164.518 73.8685C164.518 90.8981 159.34 105.857 148.984 118.744C171.537 137.154 182.813 160.858 182.813 189.854C182.813 215.168 173.838 236.8 155.888 254.751C138.168 272.701 116.651 281.676 91.3363 281.676ZM252.736 274.427C247.904 279.259 242.15 281.676 235.477 281.676C228.803 281.676 223.05 279.259 218.217 274.427C213.384 269.594 210.968 263.841 210.968 257.167C210.968 250.493 213.384 244.74 218.217 239.907C223.05 235.074 228.803 232.658 235.477 232.658C242.15 232.658 247.904 235.074 252.736 239.907C257.569 244.74 259.986 250.493 259.986 257.167C259.986 263.841 257.569 269.594 252.736 274.427Z" fill="#E6E6FA"/>
</svg>
