<svg width="273" height="306" viewBox="0 0 273 306" fill="none" xmlns="http://www.w3.org/2000/svg">
<path d="M0.979239 178.854L128.701 0.0431765H173.577V178.854H196.705V227.872H173.577V305.886L124.904 281.377V227.872H0.979239V178.854ZM124.904 178.854V89.4486L61.0431 178.854H124.904ZM265.63 274.128C260.798 278.961 255.044 281.377 248.371 281.377C241.697 281.377 235.944 278.961 231.111 274.128C226.278 269.295 223.862 263.542 223.862 256.868C223.862 250.194 226.278 244.441 231.111 239.608C235.944 234.776 241.697 232.359 248.371 232.359C255.044 232.359 260.798 234.776 265.63 239.608C270.463 244.441 272.879 250.194 272.879 256.868C272.879 263.542 270.463 269.295 265.63 274.128Z" fill="#E6E6FA"/>
</svg>
