<svg width="271" height="282" viewBox="0 0 271 282" fill="none" xmlns="http://www.w3.org/2000/svg">
<path d="M4.65966 146.691L31.2397 0.328333H175.876L151.367 49.346H72.3178L64.3784 90.7694C74.5041 87.5476 84.7449 85.9367 95.1007 85.9367C122.256 85.9367 145.384 95.487 164.485 114.588C183.586 133.689 193.136 156.817 193.136 183.972C193.136 210.897 183.586 233.91 164.485 253.011C145.384 272.112 122.256 281.662 95.1007 281.662C72.3178 281.662 52.0664 274.643 34.3464 260.605C16.8565 246.567 5.46512 228.617 0.172131 206.755H51.9514C56.0937 214.579 61.962 220.908 69.5563 225.741C77.3807 230.343 85.8955 232.644 95.1007 232.644C108.678 232.644 120.185 227.927 129.62 218.491C139.286 208.826 144.118 197.32 144.118 183.972C144.118 170.394 139.286 158.888 129.62 149.452C120.185 139.787 108.678 134.954 95.1007 134.954C83.1339 134.954 72.548 138.867 63.3428 146.691H4.65966ZM262.809 274.413C257.976 279.246 252.223 281.662 245.549 281.662C238.875 281.662 233.122 279.246 228.289 274.413C223.457 269.58 221.04 263.827 221.04 257.153C221.04 250.48 223.457 244.726 228.289 239.894C233.122 235.061 238.875 232.644 245.549 232.644C252.223 232.644 257.976 235.061 262.809 239.894C267.641 244.726 270.058 250.48 270.058 257.153C270.058 263.827 267.641 269.58 262.809 274.413Z" fill="#E6E6FA"/>
</svg>
