<svg width="274" height="282" viewBox="0 0 274 282" fill="none" xmlns="http://www.w3.org/2000/svg">
<path d="M98.7387 281.401C71.5833 281.401 48.4553 271.851 29.3545 252.75C10.2537 233.649 0.703341 210.636 0.703341 183.711V98.1029C0.703341 70.9476 10.2537 47.8195 29.3545 28.7188C48.4553 9.61798 71.5833 0.0675906 98.7387 0.0675906C120.831 0.0675906 140.392 6.6263 157.422 19.7437C174.682 32.8611 186.418 49.7757 192.632 70.4873H139.126C129.461 56.2193 115.998 49.0853 98.7387 49.0853C84.9309 49.0853 73.3093 53.918 63.874 63.5834C54.4387 73.2489 49.721 84.9855 49.721 98.7933C64.9096 90.0484 81.2488 85.6759 98.7387 85.6759C125.664 85.6759 148.677 95.2263 167.778 114.327C186.878 133.428 196.429 156.556 196.429 183.711C196.429 210.636 186.878 233.649 167.778 252.75C148.677 271.851 125.664 281.401 98.7387 281.401ZM133.258 149.192C123.823 139.526 112.316 134.694 98.7387 134.694C85.161 134.694 73.5394 139.526 63.874 149.192C54.4387 158.627 49.721 170.134 49.721 183.711C49.721 197.059 54.4387 208.565 63.874 218.231C73.5394 227.666 85.161 232.384 98.7387 232.384C112.316 232.384 123.823 227.666 133.258 218.231C142.924 208.565 147.756 197.059 147.756 183.711C147.756 170.134 142.924 158.627 133.258 149.192ZM266.695 274.152C261.862 278.985 256.109 281.401 249.435 281.401C242.761 281.401 237.008 278.985 232.175 274.152C227.343 269.32 224.926 263.566 224.926 256.893C224.926 250.219 227.343 244.466 232.175 239.633C237.008 234.8 242.761 232.384 249.435 232.384C256.109 232.384 261.862 234.8 266.695 239.633C271.528 244.466 273.944 250.219 273.944 256.893C273.944 263.566 271.528 269.32 266.695 274.152Z" fill="#E6E6FA"/>
</svg>
