<svg width="273" height="282" viewBox="0 0 273 282" fill="none" xmlns="http://www.w3.org/2000/svg">
<path d="M24.8338 49.6839L0.324923 0.666223H196.05L63.8408 282H9.64518L119.072 49.6839H24.8338ZM265.305 274.751C260.472 279.584 254.719 282 248.045 282C241.372 282 235.618 279.584 230.786 274.751C225.953 269.918 223.537 264.165 223.537 257.491C223.537 250.817 225.953 245.064 230.786 240.231C235.618 235.399 241.372 232.982 248.045 232.982C254.719 232.982 260.472 235.399 265.305 240.231C270.138 245.064 272.554 250.817 272.554 257.491C272.554 264.165 270.138 269.918 265.305 274.751Z" fill="#E6E6FA"/>
</svg>
