<svg width="262" height="282" viewBox="0 0 262 282" fill="none" xmlns="http://www.w3.org/2000/svg">
<path d="M156.769 254.463C138.819 272.413 117.187 281.388 91.8723 281.388C66.5581 281.388 44.9259 272.413 26.9757 254.463C9.02559 236.512 0.0505278 214.88 0.0505278 189.566C0.0505278 160.57 11.3269 136.866 33.8796 118.456C23.5238 105.108 18.3459 90.1498 18.3459 73.5804C18.3459 53.329 25.4799 36.0692 39.7479 21.8012C54.2461 7.30301 71.6209 0.0539187 91.8723 0.0539187C112.124 0.0539187 129.384 7.30301 143.652 21.8012C158.15 36.0692 165.399 53.329 165.399 73.5804C165.399 90.1498 160.221 105.108 149.865 118.456C172.418 136.866 183.694 160.57 183.694 189.566C183.694 214.88 174.719 236.512 156.769 254.463ZM109.132 56.3207C104.299 51.488 98.5461 49.0716 91.8723 49.0716C85.1986 49.0716 79.4453 51.488 74.6126 56.3207C69.7799 61.1534 67.3635 66.9066 67.3635 73.5804C67.3635 80.2542 69.7799 86.0074 74.6126 90.8402C79.4453 95.6729 85.1986 98.0893 91.8723 98.0893C98.5461 98.0893 104.299 95.6729 109.132 90.8402C113.965 86.0074 116.381 80.2542 116.381 73.5804C116.381 66.9066 113.965 61.1534 109.132 56.3207ZM91.8723 232.37C103.609 232.37 113.62 228.228 121.904 219.943C130.419 211.658 134.677 201.533 134.677 189.566C134.677 177.829 130.419 167.819 121.904 159.534C113.62 151.019 103.609 146.762 91.8723 146.762C79.9056 146.762 69.7799 151.019 61.4952 159.534C53.2105 167.819 49.0682 177.829 49.0682 189.566C49.0682 201.533 53.2105 211.658 61.4952 219.943C69.7799 228.228 79.9056 232.37 91.8723 232.37ZM253.914 274.139C249.082 278.971 243.328 281.388 236.655 281.388C229.981 281.388 224.228 278.971 219.395 274.139C214.562 269.306 212.146 263.553 212.146 256.879C212.146 250.205 214.562 244.452 219.395 239.619C224.228 234.786 229.981 232.37 236.655 232.37C243.328 232.37 249.082 234.786 253.914 239.619C258.747 244.452 261.163 250.205 261.163 256.879C261.163 263.553 258.747 269.306 253.914 274.139Z" fill="#E6E6FA"/>
</svg>
