<svg width="274" height="282" viewBox="0 0 274 282" fill="none" xmlns="http://www.w3.org/2000/svg">
<path d="M99.0175 0.328333C125.943 0.328333 148.956 9.87872 168.056 28.9795C187.157 48.0803 196.708 71.2083 196.708 98.3637V183.972C196.708 210.897 187.157 233.91 168.056 253.011C148.956 272.112 125.943 281.662 99.0175 281.662C76.925 281.662 57.2489 275.103 39.9891 261.986C22.7294 248.869 11.1078 232.069 5.12447 211.588H58.6297C68.5252 225.625 81.9878 232.644 99.0175 232.644C112.825 232.644 124.447 227.812 133.882 218.146C143.317 208.481 148.035 196.744 148.035 182.936C132.847 191.681 116.507 196.054 99.0175 196.054C71.8621 196.054 48.7341 186.503 29.6333 167.403C10.5325 148.302 0.982128 125.289 0.982128 98.3637C0.982128 71.2083 10.5325 48.0803 29.6333 28.9795C48.7341 9.87872 71.8621 0.328333 99.0175 0.328333ZM64.1528 132.883C73.8182 142.318 85.4398 147.036 99.0175 147.036C112.595 147.036 124.102 142.318 133.537 132.883C143.202 123.218 148.035 111.711 148.035 98.3637C148.035 84.786 143.202 73.2795 133.537 63.8442C124.102 54.1787 112.595 49.346 99.0175 49.346C85.4398 49.346 73.8182 54.1787 64.1528 63.8442C54.7175 73.2795 49.9998 84.786 49.9998 98.3637C49.9998 111.711 54.7175 123.218 64.1528 132.883ZM266.628 274.413C261.796 279.246 256.042 281.662 249.369 281.662C242.695 281.662 236.942 279.246 232.109 274.413C227.276 269.58 224.86 263.827 224.86 257.153C224.86 250.48 227.276 244.726 232.109 239.894C236.942 235.061 242.695 232.644 249.369 232.644C256.042 232.644 261.796 235.061 266.628 239.894C271.461 244.726 273.877 250.48 273.877 257.153C273.877 263.827 271.461 269.58 266.628 274.413Z" fill="#E6E6FA"/>
</svg>
