<svg width="116" height="115" viewBox="0 0 116 115" fill="none" xmlns="http://www.w3.org/2000/svg">
<circle cx="58.062" cy="57.5" r="57.5" fill="#E6E6FA"/>
<path d="M53.2488 72.1756L51.6178 71.1884L51.0492 70.8571L48.611 69.3192L48.026 68.9536L46.4536 67.9001L44.5769 66.5953L44.1792 66.3028L39.0313 62.3359C38.9736 62.2704 38.9619 62.2666 38.9962 62.3245L36.7311 60.4484L36.2 59.9708C35.7671 59.5686 34.6322 58.7643 34.562 58.2387C34.6345 57.3201 42.6956 51.2006 43.903 50.2774L51.0492 45.1062L52.1911 44.3293L53.3143 43.5935L55.584 42.147C55.8742 41.9764 56.1589 41.9543 56.4381 42.0807C56.5083 42.1127 56.5808 42.1203 56.6557 42.1036C57.0488 42.0137 57.4521 42.0091 57.8655 42.0899C58.6111 42.2818 59.3014 42.5812 59.9363 42.9879C60.5759 43.2591 60.8372 43.643 60.7202 44.1396L60.3692 46.3036L59.583 48.8446C59.5564 48.9315 59.5877 48.9619 59.6766 48.936L62.4892 48.0768L64.9789 47.3022L69.619 45.8969L71.9168 45.2068L74.3035 44.4938L76.3884 45.0879L78.8898 46.2168C78.9288 46.2808 79.0123 46.3348 79.1402 46.379C80.6658 47.4827 81.0823 49.1257 81.2906 50.9195L81.4942 53.216L81.562 55.4943L81.5503 57.7474L81.5059 60.1925L81.3795 62.329C81.2984 63.9682 80.8358 65.5168 79.9919 66.9747L78.7424 68.22L77.0272 69.0335C76.8759 69.032 76.7012 69.2095 76.5031 69.566L74.121 69.2963L71.8419 68.9741L62.4237 67.843L59.5783 67.3768C59.5651 67.3749 59.5516 67.3766 59.5393 67.3818C59.527 67.3869 59.5164 67.3952 59.5086 67.4059C59.5009 67.4165 59.4963 67.429 59.4954 67.4421C59.4945 67.4551 59.4972 67.4681 59.5034 67.4797L60.5143 69.2758L60.9378 70.2149C60.9795 70.3078 60.9886 70.4117 60.9636 70.5104C60.9387 70.6091 60.8811 70.6972 60.7997 70.7611C59.6454 71.6675 58.5534 72.6577 57.5238 73.7317C57.2313 74.0356 56.7587 74.0813 56.3632 73.8688C55.3212 73.3097 54.283 72.7453 53.2488 72.1756ZM59.0284 69.7054C59.0226 69.6975 59.0153 69.6909 59.0068 69.6858C58.9984 69.6807 58.989 69.6774 58.9792 69.6759C58.9694 69.6744 58.9594 69.6748 58.9498 69.6771C58.9401 69.6794 58.9311 69.6836 58.9231 69.6894L56.9084 71.1244C56.8948 71.134 56.8848 71.1477 56.8802 71.1635C56.8755 71.1792 56.8764 71.1961 56.8827 71.2112L57.4396 72.4703C57.4447 72.4811 57.4523 72.4906 57.462 72.4978C57.4716 72.505 57.4829 72.5099 57.4949 72.5119C57.5069 72.5139 57.5192 72.5131 57.5307 72.5094C57.5423 72.5058 57.5528 72.4994 57.5613 72.4909L59.5081 70.448C59.5194 70.4356 59.526 70.4197 59.5269 70.4031C59.5277 70.3865 59.5228 70.3701 59.5128 70.3566L59.0284 69.7054ZM54.1847 68.9673C53.7518 68.035 52.2309 65.4528 52.397 64.5753C52.5203 64.3392 52.7441 64.1891 53.0686 64.1251L57.7999 65.2403L60.1352 65.6127L62.4728 65.9372L64.6653 66.184L67.2182 66.4628L69.1954 66.6753L71.8981 67.0295L72.6047 67.146L74.3854 67.4431C74.5352 67.4675 74.6093 67.4058 74.6077 67.258L74.5235 60.2359L74.4416 57.8297L74.3222 55.9856L74.348 55.3549L74.2193 52.935L74.0461 50.9309L73.7958 48.5681L73.515 46.5801C73.5025 46.4917 73.4526 46.4613 73.3652 46.4887L71.8419 46.964L69.5371 47.6701L64.8104 49.1189L62.4681 49.8318L57.8608 51.2417L55.3687 51.9867C54.5919 52.2403 53.6746 52.6813 53.2581 51.8861C53.1567 51.6089 53.1481 51.3004 53.2324 50.9607L54.0701 46.4179L54.4725 44.9325C54.5053 44.8107 54.4686 44.7848 54.3626 44.8548L50.5906 47.341L48.969 48.4585L48.3583 48.8652L43.5263 52.3454L42.5178 53.0949L41.3502 54.0135L39.6958 55.3183L39.1155 55.8028L36.909 57.624L36.2538 58.1245C36.1867 58.1763 36.1859 58.2288 36.2514 58.2821L41.2425 62.2879L41.6076 62.5438L43.5708 63.9903C45.8764 65.6584 48.2811 67.2588 50.7848 68.7913L51.6459 69.2918L53.1154 70.1898L55.0996 71.3232C55.201 71.3811 55.2291 71.3567 55.1839 71.2501L54.1847 68.9673ZM58.6751 69.2232L57.9684 68.0555C57.9263 67.9885 57.8694 67.9725 57.7976 68.0075L56.0192 68.8759C55.9366 68.917 55.9132 68.9787 55.949 69.061L56.644 70.6742C56.6814 70.7611 56.7314 70.7679 56.7938 70.6948C57.3132 70.0885 57.9349 69.6162 58.6587 69.2781C58.6636 69.2757 58.668 69.2723 58.6715 69.2682C58.675 69.2641 58.6777 69.2593 58.6792 69.2541C58.6807 69.249 58.6812 69.2436 58.6805 69.2382C58.6797 69.2329 58.6779 69.2278 58.6751 69.2232ZM57.4513 67.1095C57.4641 67.1016 57.4743 67.0901 57.4805 67.0766C57.4867 67.063 57.4887 67.048 57.4862 67.0333C57.4837 67.0187 57.4768 67.0051 57.4665 66.9943C57.4561 66.9834 57.4427 66.9758 57.4279 66.9724L54.7884 66.2731C54.7743 66.2696 54.7594 66.2701 54.7454 66.2745C54.7315 66.279 54.7192 66.2872 54.7099 66.2982C54.7006 66.3092 54.6947 66.3226 54.6928 66.3368C54.691 66.3509 54.6933 66.3653 54.6995 66.3783L55.5981 68.236C55.6028 68.2461 55.6098 68.2549 55.6185 68.262C55.6272 68.2691 55.6373 68.2743 55.6483 68.2771C55.6592 68.2799 55.6706 68.2804 55.6818 68.2784C55.6929 68.2765 55.7035 68.2721 55.7127 68.2657L57.4513 67.1095ZM76.8658 64.2828C76.847 64.1213 76.9149 63.9987 77.0693 63.9149C78.1207 63.3497 79.0762 62.6581 79.9358 61.84C79.9935 61.7852 80.0239 61.7189 80.027 61.6412L80.1112 59.1025C80.1159 58.9684 80.066 58.9456 79.9615 59.0339L78.712 60.0874L75.9579 62.0183C75.9033 62.0564 75.8752 62.1089 75.8736 62.1759L75.7262 67.3814C75.7239 67.4586 75.7426 67.535 75.7802 67.6029C75.8178 67.6708 75.8732 67.7278 75.9406 67.7681C76.008 67.8085 76.0851 67.8307 76.1642 67.8326C76.2432 67.8345 76.3214 67.816 76.3907 67.779C78.0599 66.8833 79.1308 65.5274 79.6035 63.7115C79.6269 63.6217 79.598 63.6003 79.5169 63.6475C78.953 63.972 77.0132 65.1763 76.8658 64.2828ZM79.0887 58.9699L79.8936 58.5975C79.9654 58.564 80.0028 58.5083 80.006 58.4307L80.0294 57.9119L79.903 55.668C79.8983 55.5735 79.8601 55.5583 79.7883 55.6223L78.5061 56.7397L77.6356 57.4732L75.89 58.8283C75.8323 58.874 75.8034 58.9326 75.8034 59.0042L75.8268 61.1545C75.8267 61.1715 75.8317 61.1882 75.8411 61.2024C75.8506 61.2167 75.8642 61.2279 75.8801 61.2347C75.896 61.2415 75.9137 61.2436 75.9308 61.2407C75.948 61.2378 75.9639 61.2301 75.9766 61.2185C76.9048 60.4156 77.9421 59.6661 79.0887 58.9699ZM78.1083 55.7982L79.0653 55.0784L79.8117 54.5117C79.8773 54.4629 79.9092 54.3982 79.9077 54.3175L79.9053 53.0698L79.8258 51.3377C79.8195 51.2143 79.7743 51.1983 79.6901 51.2897C78.6698 52.3972 77.5638 53.3509 76.372 54.1507L75.7098 54.5026C75.6396 54.5406 75.6061 54.5993 75.6092 54.6785L75.759 57.5509C75.7636 57.6484 75.805 57.6659 75.883 57.6034L78.1083 55.7982ZM76.4305 53.2503C77.4788 52.4856 78.4171 51.6667 79.2455 50.7938C79.2938 50.742 79.3523 50.7283 79.421 50.7527L79.6152 50.8258C79.6947 50.8548 79.733 50.8273 79.7298 50.7436C79.7049 50.0337 79.5169 49.3618 79.1659 48.7281C79.1098 48.5042 78.9904 48.3785 78.7705 48.559C77.7534 49.3923 76.663 50.1403 75.4992 50.803C75.4197 50.8472 75.383 50.9142 75.3893 51.0041L75.5694 53.7256C75.5788 53.8551 75.6349 53.8795 75.7379 53.7987L76.4305 53.2503ZM55.5162 48.5544C56.5707 48.1157 57.5004 47.5025 58.3054 46.7149C58.895 46.1368 59.0261 45.0034 59.2484 44.2242C59.2718 44.1434 59.246 44.0832 59.1711 44.0436L57.0512 42.8988C56.9669 42.8546 56.9108 42.8767 56.8827 42.9651L56.0075 45.6158C55.9623 45.7544 55.9966 45.7773 56.1105 45.6843C56.7774 45.1451 58.4692 43.7923 58.6587 44.6263C58.6737 44.6898 58.6676 44.7563 58.6411 44.8163C58.6146 44.8763 58.5691 44.9266 58.5113 44.96C57.5831 45.4962 56.6807 46.0743 55.804 46.6944C55.7404 46.7417 55.6957 46.8096 55.6776 46.8863L55.3102 48.5841L55.0014 50.2523C54.9842 50.3482 55.0224 50.381 55.116 50.3505L57.6408 49.5644C57.6761 49.5533 57.7078 49.5336 57.7332 49.5072C57.7585 49.4809 57.7767 49.4487 57.7859 49.4136L58.193 47.8918C58.2227 47.7821 58.1915 47.7623 58.0994 47.8323C57.4232 48.3533 56.4545 49.1097 55.6261 49.0983C55.5419 49.0968 55.4842 49.0579 55.453 48.9817C55.4062 48.8721 55.4272 48.7296 55.5162 48.5544ZM75.2138 46.1551C75.2009 46.1486 75.1866 46.1456 75.1722 46.1463C75.1578 46.147 75.1438 46.1513 75.1317 46.159C75.1196 46.1666 75.1098 46.1773 75.1032 46.1898C75.0967 46.2024 75.0936 46.2164 75.0944 46.2305L75.3003 49.6399C75.3014 49.6539 75.3063 49.6675 75.3145 49.6791C75.3227 49.6908 75.3339 49.7001 75.347 49.7061C75.3601 49.7121 75.3745 49.7147 75.389 49.7135C75.4034 49.7123 75.4172 49.7074 75.429 49.6993L78.1551 47.8323C78.1668 47.8247 78.1764 47.8141 78.1827 47.8018C78.1891 47.7894 78.1921 47.7757 78.1914 47.7618C78.1907 47.748 78.1863 47.7346 78.1787 47.723C78.1711 47.7113 78.1605 47.7017 78.148 47.6952L75.2138 46.1551Z" fill="#9E7CBF"/>
</svg>
