<svg width="116" height="115" viewBox="0 0 116 115" fill="none" xmlns="http://www.w3.org/2000/svg">
<circle cx="58.062" cy="57.5" r="57.5" fill="#E6E6FA"/>
<path d="M62.8753 43.8244L64.5062 44.8116L65.0748 45.1429L67.513 46.6808L68.098 47.0464L69.6704 48.0999L71.5471 49.4047L71.9449 49.6972L77.0927 53.6641C77.1504 53.7296 77.1621 53.7334 77.1278 53.6755L79.3929 55.5516L79.9241 56.0292C80.3569 56.4314 81.4918 57.2357 81.562 57.7613C81.4895 58.6799 73.4284 64.7994 72.221 65.7226L65.0748 70.8938L63.9329 71.6707L62.8097 72.4065L60.54 73.853C60.2499 74.0236 59.9652 74.0457 59.6859 73.9193C59.6157 73.8873 59.5432 73.8797 59.4683 73.8964C59.0752 73.9863 58.672 73.9909 58.2586 73.9101C57.5129 73.7182 56.8226 73.4188 56.1877 73.0121C55.5481 72.7409 55.2868 72.357 55.4038 71.8604L55.7548 69.6964L56.5411 67.1554C56.5676 67.0685 56.5364 67.0381 56.4475 67.064L53.6348 67.9232L51.1452 68.6978L46.5051 70.1031L44.2072 70.7932L41.8205 71.5062L39.7356 70.9121L37.2342 69.7832C37.1952 69.7192 37.1118 69.6652 36.9838 69.621C35.4582 68.5173 35.0417 66.8743 34.8334 65.0805L34.6299 62.784L34.562 60.5057L34.5737 58.2526L34.6182 55.8075L34.7445 53.671C34.8256 52.0318 35.2882 50.4832 36.1321 49.0253L37.3816 47.78L39.0968 46.9665C39.2481 46.968 39.4228 46.7905 39.621 46.434L42.003 46.7037L44.2821 47.0259L53.7004 48.157L56.5457 48.6232C56.559 48.6251 56.5725 48.6234 56.5848 48.6182C56.597 48.6131 56.6077 48.6048 56.6154 48.5941C56.6231 48.5835 56.6277 48.571 56.6287 48.5579C56.6296 48.5449 56.6268 48.5319 56.6206 48.5203L55.6098 46.7242L55.1862 45.7851C55.1445 45.6922 55.1354 45.5883 55.1604 45.4896C55.1854 45.3909 55.243 45.3028 55.3243 45.2389C56.4787 44.3325 57.5706 43.3423 58.6002 42.2683C58.8927 41.9644 59.3654 41.9187 59.7608 42.1312C60.8029 42.6903 61.841 43.2547 62.8753 43.8244ZM57.0956 46.2946C57.1014 46.3025 57.1088 46.3091 57.1172 46.3142C57.1257 46.3193 57.135 46.3226 57.1448 46.3241C57.1546 46.3256 57.1646 46.3252 57.1743 46.3229C57.1839 46.3206 57.1929 46.3164 57.2009 46.3106L59.2156 44.8756C59.2292 44.866 59.2392 44.8523 59.2439 44.8365C59.2485 44.8208 59.2476 44.8039 59.2413 44.7888L58.6844 43.5297C58.6794 43.5189 58.6717 43.5094 58.6621 43.5022C58.6524 43.495 58.6411 43.4901 58.6291 43.4881C58.6172 43.4861 58.6049 43.4869 58.5933 43.4906C58.5817 43.4942 58.5712 43.5006 58.5628 43.5091L56.6159 45.552C56.6046 45.5644 56.598 45.5803 56.5971 45.5969C56.5963 45.6135 56.6013 45.6299 56.6112 45.6434L57.0956 46.2946ZM61.9393 47.0327C62.3722 47.965 63.8931 50.5472 63.727 51.4247C63.6038 51.6608 63.3799 51.8109 63.0554 51.8749L58.3241 50.7597L55.9888 50.3873L53.6512 50.0628L51.4587 49.816L48.9058 49.5372L46.9286 49.3247L44.226 48.9705L43.5193 48.854L41.7386 48.5569C41.5888 48.5325 41.5147 48.5942 41.5163 48.742L41.6005 55.7641L41.6824 58.1703L41.8018 60.0144L41.776 60.6451L41.9047 63.065L42.0779 65.0691L42.3283 67.4319L42.6091 69.4199C42.6215 69.5083 42.6715 69.5387 42.7588 69.5113L44.2821 69.036L46.587 68.3299L51.3136 66.8811L53.6559 66.1682L58.2632 64.7583L60.7553 64.0133C61.5321 63.7597 62.4494 63.3187 62.8659 64.1139C62.9673 64.3911 62.9759 64.6996 62.8916 65.0394L62.0539 69.5821L61.6515 71.0675C61.6187 71.1893 61.6554 71.2152 61.7615 71.1452L65.5334 68.659L67.155 67.5415L67.7657 67.1348L72.5977 63.6546L73.6062 62.9051L74.7739 61.9865L76.4282 60.6817L77.0085 60.1972L79.215 58.376L79.8702 57.8755C79.9373 57.8238 79.9381 57.7712 79.8726 57.7179L74.8815 53.7121L74.5165 53.4562L72.5532 52.0097C70.2476 50.3416 67.843 48.7412 65.3392 47.2087L64.4781 46.7082L63.0086 45.8102L61.0244 44.6768C60.923 44.6189 60.8949 44.6433 60.9401 44.7499L61.9393 47.0327ZM57.4489 46.7768L58.1556 47.9445C58.1977 48.0115 58.2547 48.0275 58.3264 47.9925L60.1048 47.1241C60.1875 47.083 60.2109 47.0213 60.175 46.939L59.48 45.3258C59.4426 45.2389 59.3927 45.2321 59.3303 45.3052C58.8108 45.9115 58.1891 46.3838 57.4653 46.722C57.4604 46.7243 57.456 46.7277 57.4525 46.7318C57.449 46.7359 57.4464 46.7407 57.4448 46.7459C57.4433 46.751 57.4429 46.7564 57.4436 46.7618C57.4443 46.7671 57.4461 46.7722 57.4489 46.7768ZM58.6727 48.8905C58.6599 48.8984 58.6497 48.9099 58.6435 48.9234C58.6373 48.937 58.6353 48.952 58.6378 48.9667C58.6403 48.9813 58.6472 48.9949 58.6576 49.0057C58.6679 49.0166 58.6814 49.0242 58.6961 49.0276L61.3356 49.7269C61.3498 49.7304 61.3647 49.7299 61.3786 49.7255C61.3925 49.721 61.4048 49.7128 61.4141 49.7018C61.4234 49.6908 61.4294 49.6774 61.4312 49.6632C61.433 49.6491 61.4307 49.6347 61.4245 49.6217L60.526 47.764C60.5212 47.7539 60.5142 47.7451 60.5055 47.738C60.4969 47.7309 60.4867 47.7257 60.4758 47.7229C60.4648 47.7201 60.4534 47.7196 60.4422 47.7216C60.4311 47.7235 60.4205 47.7279 60.4113 47.7343L58.6727 48.8905ZM39.2583 51.7172C39.277 51.8787 39.2091 52.0013 39.0547 52.0851C38.0033 52.6503 37.0478 53.3419 36.1883 54.16C36.1306 54.2148 36.1001 54.2811 36.097 54.3588L36.0128 56.8975C36.0081 57.0316 36.058 57.0544 36.1625 56.9661L37.4121 55.9126L40.1662 53.9817C40.2208 53.9436 40.2488 53.8911 40.2504 53.8241L40.3978 48.6186C40.4001 48.5414 40.3815 48.465 40.3438 48.3971C40.3062 48.3292 40.2509 48.2722 40.1834 48.2319C40.116 48.1915 40.0389 48.1693 39.9599 48.1674C39.8808 48.1655 39.8027 48.184 39.7333 48.221C38.0641 49.1167 36.9932 50.4726 36.5205 52.2885C36.4971 52.3783 36.526 52.3997 36.6071 52.3524C37.171 52.028 39.1109 50.8237 39.2583 51.7172ZM37.0353 57.0301L36.2304 57.4025C36.1586 57.436 36.1212 57.4916 36.1181 57.5693L36.0947 58.0881L36.221 60.332C36.2257 60.4265 36.2639 60.4417 36.3357 60.3777L37.618 59.2603L38.4884 58.5268L40.234 57.1717C40.2917 57.126 40.3206 57.0674 40.3206 56.9958L40.2972 54.8455C40.2973 54.8285 40.2924 54.8118 40.2829 54.7976C40.2734 54.7833 40.2599 54.7721 40.2439 54.7653C40.228 54.7585 40.2103 54.7564 40.1932 54.7593C40.176 54.7622 40.1601 54.7699 40.1474 54.7815C39.2193 55.5843 38.1819 56.3339 37.0353 57.0301ZM38.0158 60.2018L37.0587 60.9216L36.3123 61.4883C36.2468 61.537 36.2148 61.6018 36.2163 61.6825L36.2187 62.9302L36.2982 64.6623C36.3045 64.7857 36.3497 64.8017 36.434 64.7103C37.4542 63.6028 38.5602 62.6491 39.752 61.8493L40.4142 61.4974C40.4844 61.4594 40.5179 61.4007 40.5148 61.3215L40.3651 58.4491C40.3604 58.3516 40.319 58.3341 40.241 58.3966L38.0158 60.2018ZM39.6935 62.7497C38.6452 63.5144 37.7069 64.3333 36.8786 65.2062C36.8302 65.258 36.7717 65.2717 36.7031 65.2473L36.5088 65.1742C36.4293 65.1452 36.3911 65.1726 36.3942 65.2564C36.4191 65.9663 36.6071 66.6382 36.9581 67.2719C37.0143 67.4958 37.1336 67.6215 37.3536 67.441C38.3707 66.6077 39.4611 65.8597 40.6248 65.197C40.7043 65.1528 40.741 65.0858 40.7348 64.9959L40.5546 62.2744C40.5452 62.1449 40.4891 62.1205 40.3861 62.2013L39.6935 62.7497ZM60.6079 67.4456C59.5533 67.8843 58.6236 68.4975 57.8187 69.2851C57.229 69.8632 57.098 70.9966 56.8757 71.7758C56.8523 71.8566 56.878 71.9168 56.9529 71.9564L59.0729 73.1012C59.1571 73.1454 59.2133 73.1233 59.2413 73.0349L60.1165 70.3842C60.1617 70.2456 60.1274 70.2227 60.0135 70.3157C59.3466 70.8549 57.6549 72.2077 57.4653 71.3737C57.4503 71.3102 57.4565 71.2437 57.483 71.1837C57.5095 71.1237 57.5549 71.0734 57.6127 71.04C58.5409 70.5038 59.4434 69.9257 60.32 69.3056C60.3836 69.2583 60.4283 69.1904 60.4464 69.1137L60.8138 67.4159L61.1227 65.7477C61.1398 65.6518 61.1016 65.619 61.008 65.6495L58.4832 66.4355C58.448 66.4467 58.4162 66.4664 58.3908 66.4928C58.3655 66.5191 58.3473 66.5513 58.3381 66.5864L57.931 68.1082C57.9013 68.2179 57.9325 68.2377 58.0246 68.1677C58.7008 67.6467 59.6695 66.8903 60.4979 66.9017C60.5821 66.9032 60.6398 66.9421 60.671 67.0183C60.7178 67.1279 60.6968 67.2704 60.6079 67.4456ZM40.9103 69.8449C40.9231 69.8514 40.9374 69.8544 40.9518 69.8537C40.9662 69.853 40.9802 69.8487 40.9923 69.841C41.0044 69.8333 41.0143 69.8227 41.0208 69.8102C41.0273 69.7976 41.0304 69.7836 41.0296 69.7695L40.8237 66.3601C40.8226 66.3461 40.8177 66.3325 40.8095 66.3209C40.8013 66.3092 40.7901 66.2999 40.777 66.2939C40.764 66.2879 40.7495 66.2853 40.7351 66.2865C40.7207 66.2877 40.7068 66.2926 40.695 66.3007L37.969 68.1677C37.9572 68.1753 37.9477 68.1859 37.9413 68.1982C37.9349 68.2106 37.932 68.2243 37.9327 68.2382C37.9334 68.252 37.9377 68.2654 37.9453 68.277C37.9529 68.2887 37.9635 68.2983 37.976 68.3048L40.9103 69.8449Z" fill="#9E7CBF"/>
</svg>
