<svg width="213" height="123" viewBox="0 0 213 123" fill="none" xmlns="http://www.w3.org/2000/svg">
<rect x="0.562012" y="0.456787" width="212" height="122" rx="12" fill="white"/>
<path d="M113.766 58.7117H96.0474L92.3496 64.6714H117.463L113.766 58.7117Z" fill="#6767E0"/>
<path d="M103.291 33.0637C103.283 33.0689 93.5042 40.5909 89.8813 43.3771V58.7117H116.7V43.3771L103.291 33.0637Z" fill="#E6E6FA"/>
<path d="M103.291 33.064C103.288 33.0666 88.553 44.3995 88.5528 44.3995C88.123 44.7274 87.5709 44.9024 86.9764 44.8443C85.853 44.7355 85.2392 44.0942 85.0239 43.142C84.813 42.2101 85.1855 41.3459 85.8471 40.8415L101.939 28.475C102.737 27.8669 103.846 27.8665 104.644 28.475C115.08 36.495 103.119 27.3017 120.736 40.8415C121.272 41.2498 121.618 41.8949 121.618 42.6205C121.618 43.855 120.617 44.8555 119.383 44.8555C118.874 44.8555 118.405 44.6856 118.03 44.3995L103.291 33.064Z" fill="#6767E0"/>
<path d="M116.7 28.0191V37.738L116.699 37.7395L112.23 34.3052V28.0191H116.7Z" fill="#6767E0"/>
<path d="M98.3744 62.4365C98.3744 63.6709 97.3739 64.6714 96.1395 64.6714H87.9447C86.2991 64.6714 84.9648 63.3371 84.9648 61.6915C84.9648 60.577 85.5839 59.6167 86.4898 59.1057C86.6604 57.314 88.0833 55.8867 89.8817 55.7436C91.145 55.6384 92.4272 56.1976 93.2154 57.3096C93.4374 57.2567 93.6661 57.2216 93.9045 57.2216C95.551 57.2216 96.8844 58.5566 96.8844 60.2015C96.8844 60.247 96.8733 60.2894 96.871 60.3341C97.7491 60.6402 98.3744 61.4659 98.3744 62.4365Z" fill="#58B741"/>
<path d="M98.3742 62.5575C98.3742 63.7251 97.4278 64.6714 96.2602 64.6714H88.5092C86.9527 64.6714 85.6907 63.4094 85.6907 61.8528C85.6907 60.7987 86.2762 59.8904 87.1331 59.407C87.2944 57.7124 88.6403 56.3623 90.3413 56.227C91.5362 56.1274 92.749 56.6564 93.4945 57.7082C93.7045 57.6581 93.9208 57.625 94.1463 57.625C95.7037 57.625 96.9649 58.8876 96.9649 60.4436C96.9649 60.4865 96.9543 60.5267 96.9522 60.569C97.7828 60.8584 98.3742 61.6395 98.3742 62.5575Z" fill="#70D65B"/>
<rect x="98.7119" y="44.0886" width="9.03889" height="9.03889" rx="0.795354" stroke="#6767E0" stroke-width="1.59071"/>
<rect x="98.378" y="48.9508" width="0.685285" height="9.94432" rx="0.342643" transform="rotate(-90 98.378 48.9508)" stroke="#6767E0" stroke-width="0.685285"/>
<rect x="102.973" y="43.6698" width="0.75315" height="9.87645" rx="0.376575" stroke="#6767E0" stroke-width="0.75315"/>
<g clip-path="url(#clip0_203_572)">
<path d="M114.421 61.2584C113.646 61.1991 113.029 60.6901 112.855 60.0358C112.359 60.5346 111.551 60.7126 110.839 60.4261C110.128 60.1394 109.727 59.475 109.795 58.8045C109.149 59.128 108.323 59.0566 107.752 58.5749C107.181 58.093 107.038 57.3463 107.339 56.7321C106.614 56.8481 105.856 56.536 105.487 55.9111C105.116 55.2854 105.246 54.5354 105.751 54.0435C105.022 53.9367 104.417 53.4164 104.29 52.7141C104.165 52.0138 104.553 51.3442 105.204 51.0295C104.554 50.7135 104.167 50.0435 104.295 49.3432C104.423 48.6414 105.028 48.1219 105.757 48.0165C105.254 47.5237 105.126 46.7737 105.497 46.1489C105.868 45.5243 106.625 45.2143 107.351 45.3312C107.051 44.7164 107.196 43.9701 107.768 43.4897C108.34 43.0083 109.166 42.939 109.812 43.2643C109.745 42.5929 110.147 41.9288 110.859 41.6432C111.572 41.3578 112.38 41.5378 112.875 42.0379C113.051 41.3836 113.668 40.8751 114.444 40.8176C115.218 40.7601 115.916 41.1688 116.206 41.7866C116.604 41.2203 117.367 40.9222 118.121 41.0962C118.875 41.2706 119.392 41.8655 119.447 42.5377C120.026 42.1203 120.854 42.0656 121.505 42.4549C122.155 42.8442 122.431 43.5592 122.245 44.2104C122.939 43.9871 123.742 44.18 124.219 44.7399C124.697 45.3008 124.705 46.0596 124.297 46.621C125.035 46.6149 125.727 47.036 125.979 47.7088C126.232 48.3821 125.969 49.102 125.383 49.5116C126.081 49.7255 126.585 50.3284 126.585 51.0388V51.0609C126.583 51.7709 126.079 52.3727 125.38 52.5853C125.965 52.9957 126.226 53.7167 125.972 54.3886C125.718 55.0607 125.025 55.4805 124.288 55.4736C124.694 56.0354 124.684 56.7941 124.205 57.3537C123.726 57.9132 122.923 58.1046 122.229 57.88C122.414 58.5315 122.137 59.2463 121.486 59.6341C120.834 60.0225 120.006 59.9664 119.427 59.5472C119.371 60.2194 118.853 60.814 118.099 60.9869C117.344 61.1595 116.582 60.8599 116.185 60.2926C115.912 60.8701 115.282 61.2638 114.569 61.2638C114.52 61.2638 114.47 61.262 114.421 61.2584Z" fill="#70D65B"/>
<path d="M114.438 41.6421C114.738 41.5225 115.036 41.465 115.308 41.465C115.683 41.465 116.008 41.5756 116.207 41.7857C115.935 41.2066 115.305 40.811 114.589 40.811C114.542 40.811 114.493 40.813 114.445 40.8165C114.072 40.8434 113.718 40.9789 113.436 41.2032C113.159 41.4215 112.964 41.7129 112.876 42.0372C112.541 41.6982 112.062 41.5063 111.566 41.5063C111.331 41.5063 111.091 41.55 110.86 41.6421C110.2 41.9072 109.806 42.4972 109.806 43.1175C109.806 43.1658 109.808 43.2144 109.813 43.2632C109.552 43.132 109.259 43.0633 108.961 43.0635C108.535 43.0635 108.108 43.2037 107.769 43.4885C107.391 43.8059 107.199 44.2393 107.199 44.6742C107.199 44.8976 107.25 45.1215 107.352 45.3301C107.251 45.3139 107.15 45.3058 107.048 45.3059C106.423 45.3059 105.818 45.6104 105.499 46.1477C105.358 46.3831 105.284 46.6469 105.284 46.9151C105.284 47.3202 105.451 47.7152 105.758 48.0152C105.397 48.0681 105.063 48.2218 104.801 48.4552C104.534 48.694 104.356 49.0048 104.296 49.3421C104.28 49.4303 104.271 49.5195 104.271 49.6088C104.271 50.2081 104.638 50.7528 105.205 51.0282C104.637 51.3032 104.268 51.8494 104.268 52.4495C104.268 52.5367 104.276 52.6243 104.292 52.7128C104.352 53.0504 104.528 53.3616 104.796 53.6007C105.057 53.8349 105.391 53.9892 105.752 54.0422C105.446 54.3414 105.275 54.7356 105.275 55.1452C105.275 55.4038 105.344 55.6667 105.488 55.9101C105.806 56.4484 106.413 56.755 107.039 56.755C107.139 56.755 107.24 56.7472 107.341 56.7308C107.239 56.9382 107.186 57.1629 107.187 57.3902C107.187 57.8241 107.377 58.2565 107.753 58.5738C108.092 58.8598 108.521 59.0008 108.948 59.0008C109.244 59.0009 109.536 58.9329 109.796 58.8031C109.791 58.852 109.788 58.9011 109.788 58.9502C109.788 59.5692 110.181 60.1596 110.84 60.4248C111.064 60.5151 111.306 60.5618 111.55 60.562C111.796 60.5618 112.039 60.5148 112.264 60.424C112.489 60.3332 112.69 60.2006 112.856 60.0347C113.03 60.689 113.647 61.1981 114.422 61.2572C114.472 61.2611 114.521 61.2626 114.57 61.2626C114.927 61.2626 115.263 61.1642 115.543 60.9935C115.641 60.9335 115.733 60.865 115.816 60.7889C115.68 60.8233 115.535 60.8395 115.388 60.8395C115.07 60.8395 114.734 60.7652 114.418 60.6378C113.759 60.3722 113.366 59.5992 113.366 58.9537C113.366 58.9025 113.369 58.8523 113.374 58.8032C113.114 58.933 112.822 59.0009 112.526 59.0008C112.098 59.0008 111.67 58.8598 111.331 58.5738C110.955 58.2565 110.764 57.8241 110.764 57.3902C110.764 57.1658 110.816 56.9405 110.918 56.7308C110.818 56.7472 110.717 56.755 110.617 56.755C109.991 56.755 109.385 56.4484 109.066 55.9101C108.926 55.6754 108.853 55.4124 108.853 55.1452C108.853 54.7393 109.022 54.3427 109.33 54.0422C108.969 53.9892 108.635 53.835 108.374 53.6007C108.106 53.3616 107.93 53.0504 107.87 52.7128C107.854 52.6258 107.846 52.5377 107.846 52.4495C107.846 51.8493 108.215 51.3032 108.783 51.0281C108.216 50.7527 107.849 50.2081 107.849 49.6087C107.849 49.5209 107.857 49.4317 107.873 49.3421C107.934 49.0047 108.112 48.6939 108.38 48.4551C108.641 48.2218 108.975 48.0681 109.336 48.0152C109.029 47.7157 108.862 47.3201 108.862 46.9156C108.862 46.6559 108.931 46.3923 109.077 46.1476C109.396 45.6104 110.001 45.3058 110.626 45.3058C110.727 45.3058 110.828 45.3137 110.93 45.3301C110.829 45.1236 110.777 44.9001 110.777 44.6742C110.777 44.2392 110.969 43.8058 111.347 43.4885C111.686 43.2036 112.113 43.0634 112.539 43.0634C112.837 43.0633 113.13 43.132 113.391 43.2631C113.386 43.2149 113.384 43.1665 113.384 43.1181C113.384 42.498 113.778 41.9071 114.438 41.6421Z" fill="#58B741"/>
<path d="M120.831 64.6715H110.022C112.179 64.6715 112.953 62.9938 112.953 62.4167V57.7113C113.144 57.818 113.356 57.8901 113.577 57.9238C113.627 57.9312 113.676 57.9367 113.725 57.9405C113.774 57.9445 113.823 57.9465 113.872 57.9465C114.526 57.9465 115.122 57.6125 115.424 57.0962C115.724 57.6178 116.323 57.9558 116.982 57.9558C117.076 57.9558 117.171 57.9489 117.267 57.9347C117.491 57.9017 117.706 57.8292 117.899 57.7211V62.4167C117.899 62.9938 118.673 64.6715 120.831 64.6715Z" fill="#AD7136"/>
<path d="M113.872 57.9466C114.103 57.9466 114.328 57.9048 114.534 57.8281V62.4169C114.534 62.9939 114.254 64.6716 113.476 64.6716H110.022C112.179 64.6716 112.953 62.9939 112.953 62.4169V57.7114C113.144 57.8182 113.356 57.8903 113.577 57.9241C113.627 57.9313 113.676 57.9368 113.725 57.9406C113.774 57.9446 113.823 57.9467 113.872 57.9467L113.872 57.9466Z" fill="#8C531F"/>
<path d="M121.139 49.7783C121.032 49.7782 120.93 49.7394 120.854 49.6702C120.778 49.601 120.736 49.5071 120.736 49.4093C120.736 48.8941 120.394 48.4446 120.192 48.2602C120.155 48.226 120.125 48.1853 120.105 48.1405C120.085 48.0957 120.074 48.0477 120.074 47.9993C120.074 47.9508 120.085 47.9028 120.105 47.8581C120.125 47.8133 120.155 47.7726 120.193 47.7384C120.268 47.6692 120.371 47.6303 120.478 47.6304C120.531 47.6304 120.584 47.6399 120.633 47.6585C120.682 47.677 120.726 47.7042 120.764 47.7385C121.123 48.0671 121.543 48.702 121.543 49.4092C121.543 49.4577 121.533 49.5057 121.512 49.5504C121.492 49.5952 121.462 49.6359 121.425 49.6702C121.387 49.7044 121.343 49.7316 121.294 49.7502C121.245 49.7687 121.192 49.7783 121.139 49.7783Z" fill="#AD7136"/>
<path d="M121.858 52.3787C121.719 52.4376 121.576 52.4001 121.442 52.3159C121.359 52.2635 121.262 52.2338 121.161 52.2299C121.157 52.2299 121.154 52.2297 121.15 52.2297C121.041 52.2276 120.931 52.2563 120.837 52.3159C120.703 52.4002 120.56 52.4376 120.421 52.3787C118.701 51.6481 118.678 49.6602 119.37 49.1583C119.558 49.0218 119.751 48.9781 119.937 48.987C120.278 49.0032 120.601 49.194 120.848 49.3134C120.964 49.3692 121.062 49.4094 121.139 49.4094C121.472 49.4094 122.217 48.6565 122.909 49.1583C123.601 49.6602 123.578 51.6481 121.858 52.3787Z" fill="#FF3434"/>
<path d="M121.15 52.2297C121.041 52.2275 120.931 52.2562 120.837 52.3158C120.703 52.4001 120.56 52.4376 120.421 52.3786C118.701 51.6481 118.678 49.6602 119.37 49.1583C119.558 49.0217 119.751 48.978 119.937 48.9869C120.278 49.0032 120.601 49.194 120.848 49.3134C119.102 49.3134 120.408 52.2009 121.15 52.2297Z" fill="#DB2727"/>
<path d="M111.197 46.0166C111.09 46.0166 110.987 45.9778 110.911 45.9086C110.836 45.8394 110.793 45.7455 110.793 45.6476C110.793 44.948 111.208 44.32 111.564 43.9947C111.64 43.9256 111.743 43.8867 111.85 43.8867C111.957 43.8867 112.06 43.9256 112.135 43.9947C112.173 44.029 112.203 44.0696 112.223 44.1144C112.243 44.1592 112.254 44.2072 112.254 44.2557C112.254 44.3041 112.243 44.3521 112.223 44.3969C112.203 44.4417 112.173 44.4824 112.135 44.5166C111.937 44.6981 111.601 45.1407 111.601 45.6477C111.601 45.6962 111.59 45.7441 111.57 45.7889C111.55 45.8337 111.52 45.8744 111.482 45.9086C111.445 45.9429 111.4 45.9701 111.351 45.9886C111.302 46.0071 111.25 46.0167 111.197 46.0166H111.197Z" fill="#AD7136"/>
<path d="M111.906 48.5797C111.769 48.638 111.628 48.601 111.496 48.5179C111.414 48.4662 111.318 48.4368 111.218 48.433C111.215 48.433 111.211 48.4329 111.207 48.4329C111.097 48.4307 110.989 48.4605 110.898 48.5179C110.766 48.601 110.624 48.638 110.487 48.5797C108.79 47.8585 108.766 45.8958 109.45 45.4002C109.636 45.2653 109.826 45.2223 110.01 45.2311C110.347 45.2471 110.665 45.4354 110.91 45.5535C111.023 45.6085 111.121 45.6482 111.197 45.6482C111.525 45.6482 112.261 44.9048 112.944 45.4004C113.627 45.8958 113.604 47.8585 111.906 48.5797Z" fill="#FF3434"/>
<path d="M111.207 48.4327C111.097 48.4307 110.989 48.4605 110.898 48.5179C110.766 48.6011 110.624 48.638 110.487 48.5798C108.79 47.8586 108.766 45.8958 109.45 45.4003C109.636 45.2653 109.826 45.2222 110.01 45.2311C110.347 45.2472 110.665 45.4354 110.91 45.5533C109.185 45.5535 110.474 48.4045 111.207 48.4327Z" fill="#DB2727"/>
<path d="M113.829 53.3002C113.721 53.3002 113.619 53.2613 113.543 53.1921C113.467 53.1229 113.425 53.0291 113.425 52.9312C113.425 52.2315 113.84 51.6034 114.196 51.2783C114.234 51.244 114.278 51.2168 114.327 51.1983C114.376 51.1797 114.429 51.1702 114.482 51.1702C114.535 51.1702 114.587 51.1797 114.636 51.1983C114.685 51.2168 114.73 51.244 114.767 51.2783C114.843 51.3475 114.885 51.4413 114.885 51.5392C114.885 51.637 114.843 51.7308 114.767 51.8C114.568 51.9815 114.232 52.424 114.232 52.9312C114.232 53.0291 114.19 53.1229 114.114 53.1921C114.038 53.2613 113.936 53.3002 113.829 53.3002Z" fill="#AD7136"/>
<path d="M114.537 55.6166C114.4 55.6749 114.259 55.6379 114.127 55.5547C114.045 55.5031 113.949 55.4737 113.85 55.4699C113.846 55.4699 113.842 55.4699 113.839 55.4697C113.728 55.4675 113.62 55.4973 113.529 55.5547C113.397 55.6379 113.256 55.6748 113.119 55.6166C111.421 54.8955 111.398 52.9325 112.081 52.4372C112.267 52.3021 112.457 52.2592 112.641 52.2679C112.978 52.284 113.296 52.4723 113.541 52.5903C113.654 52.6453 113.752 52.685 113.828 52.685C114.157 52.685 114.892 51.9417 115.576 52.4372C116.259 52.9325 116.235 54.8956 114.537 55.6166Z" fill="#FF3434"/>
<path d="M113.839 55.4697C113.728 55.4675 113.62 55.4973 113.529 55.5547C113.397 55.6379 113.256 55.6749 113.119 55.6166C111.421 54.8954 111.398 52.9326 112.081 52.4371C112.267 52.3022 112.457 52.2592 112.641 52.2679C112.978 52.284 113.296 52.4722 113.541 52.5904C111.816 52.5904 113.106 55.4413 113.839 55.4697Z" fill="#DB2727"/>
</g>
<path d="M39.1083 87.625C38.991 87.625 38.8854 87.5839 38.7915 87.5018C38.7094 87.4197 38.6684 87.3141 38.6684 87.1851V75.7472C38.6684 75.6181 38.7094 75.5126 38.7915 75.4304C38.8854 75.3483 38.991 75.3073 39.1083 75.3073H40.7448C40.9208 75.3073 41.0498 75.3542 41.1319 75.448C41.2258 75.5419 41.2903 75.6123 41.3255 75.6592L44.5633 81.6245L47.8363 75.6592C47.8597 75.6123 47.9125 75.5419 47.9947 75.448C48.0885 75.3542 48.2234 75.3073 48.3994 75.3073H50.0359C50.1649 75.3073 50.2705 75.3483 50.3526 75.4304C50.4347 75.5126 50.4758 75.6181 50.4758 75.7472V87.1851C50.4758 87.3141 50.4347 87.4197 50.3526 87.5018C50.2705 87.5839 50.1649 87.625 50.0359 87.625H48.241C48.1237 87.625 48.024 87.5839 47.9419 87.5018C47.8597 87.4197 47.8187 87.3141 47.8187 87.1851V80.076L45.5839 84.264C45.5252 84.3696 45.449 84.4634 45.3551 84.5456C45.2613 84.6277 45.1381 84.6687 44.9856 84.6687H44.1586C44.0061 84.6687 43.8829 84.6277 43.789 84.5456C43.6952 84.4634 43.6189 84.3696 43.5603 84.264L41.3255 80.076V87.1851C41.3255 87.3141 41.2844 87.4197 41.2023 87.5018C41.1202 87.5839 41.0205 87.625 40.9032 87.625H39.1083ZM55.5848 87.801C54.963 87.801 54.4058 87.6837 53.9131 87.449C53.4204 87.2027 53.0274 86.8742 52.7341 86.4636C52.4408 86.053 52.2942 85.5955 52.2942 85.0911C52.2942 84.2582 52.6285 83.6012 53.2972 83.1202C53.9776 82.6393 54.8692 82.3108 55.9719 82.1348L58.2771 81.8005V81.4837C58.2771 81.0262 58.1715 80.6743 57.9603 80.4279C57.7492 80.1816 57.3796 80.0584 56.8517 80.0584C56.4646 80.0584 56.1537 80.1346 55.9191 80.2872C55.6845 80.4397 55.5026 80.6391 55.3736 80.8854C55.2798 81.0379 55.1448 81.1142 54.9689 81.1142H53.2972C53.1681 81.1142 53.0684 81.079 52.998 81.0086C52.9277 80.9265 52.8983 80.8327 52.9101 80.7271C52.9101 80.5276 52.9863 80.293 53.1388 80.0232C53.2913 79.7534 53.5259 79.4894 53.8427 79.2313C54.1594 78.9615 54.5642 78.7386 55.0569 78.5627C55.5496 78.3867 56.1537 78.2987 56.8693 78.2987C57.6084 78.2987 58.2419 78.3867 58.7698 78.5627C59.2977 78.7386 59.72 78.985 60.0367 79.3017C60.3535 79.6185 60.5881 79.988 60.7406 80.4103C60.8931 80.8209 60.9694 81.2667 60.9694 81.7477V87.1851C60.9694 87.3141 60.9283 87.4197 60.8462 87.5018C60.7641 87.5839 60.6585 87.625 60.5295 87.625H58.805C58.6877 87.625 58.5879 87.5839 58.5058 87.5018C58.4237 87.4197 58.3827 87.3141 58.3827 87.1851V86.534C58.2301 86.7569 58.0249 86.9681 57.7668 87.1675C57.5087 87.3552 57.1978 87.5077 56.8341 87.625C56.4822 87.7423 56.0657 87.801 55.5848 87.801ZM56.2886 85.9709C56.6758 85.9709 57.0218 85.8888 57.3268 85.7246C57.6319 85.5603 57.8723 85.3081 58.0483 84.9679C58.2243 84.6277 58.3123 84.1995 58.3123 83.6833V83.3842L56.6758 83.6481C56.0423 83.7537 55.5789 83.9121 55.2856 84.1232C54.9923 84.3344 54.8457 84.5925 54.8457 84.8975C54.8457 85.1204 54.9102 85.314 55.0393 85.4782C55.18 85.6424 55.3619 85.7656 55.5848 85.8477C55.8077 85.9298 56.0423 85.9709 56.2886 85.9709ZM63.5399 90.9684C63.4108 90.9684 63.3053 90.9273 63.2231 90.8452C63.141 90.7631 63.1 90.6575 63.1 90.5285V78.9146C63.1 78.7856 63.141 78.68 63.2231 78.5979C63.3053 78.5157 63.4108 78.4747 63.5399 78.4747H65.2116C65.3406 78.4747 65.4462 78.5157 65.5283 78.5979C65.6104 78.68 65.6515 78.7856 65.6515 78.9146V79.5833C65.933 79.2079 66.2967 78.9029 66.7425 78.6683C67.1883 78.4219 67.7455 78.2987 68.4142 78.2987C69.0242 78.2987 69.5521 78.3984 69.9979 78.5979C70.4554 78.7856 70.8367 79.0612 71.1417 79.4249C71.4584 79.7768 71.6989 80.205 71.8631 80.7095C72.0391 81.2139 72.1388 81.7829 72.1623 82.4164C72.174 82.6393 72.1799 82.8504 72.1799 83.0498C72.1799 83.2493 72.174 83.4663 72.1623 83.7009C72.1506 84.2992 72.0567 84.8506 71.8807 85.355C71.7165 85.8595 71.476 86.2935 71.1593 86.6572C70.8425 87.0208 70.4554 87.3024 69.9979 87.5018C69.5521 87.7013 69.0242 87.801 68.4142 87.801C67.8159 87.801 67.2939 87.6954 66.8481 87.4842C66.414 87.2613 66.0562 86.9622 65.7747 86.5868V90.5285C65.7747 90.6575 65.7336 90.7631 65.6515 90.8452C65.5694 90.9273 65.4697 90.9684 65.3523 90.9684H63.5399ZM67.6223 85.6894C68.0681 85.6894 68.42 85.5955 68.6781 85.4078C68.9362 85.2084 69.118 84.9503 69.2236 84.6336C69.3409 84.3168 69.4113 83.9707 69.4348 83.5953C69.4583 83.2317 69.4583 82.868 69.4348 82.5043C69.4113 82.1289 69.3409 81.7829 69.2236 81.4661C69.118 81.1494 68.9362 80.8972 68.6781 80.7095C68.42 80.51 68.0681 80.4103 67.6223 80.4103C67.1883 80.4103 66.8363 80.51 66.5665 80.7095C66.2967 80.9089 66.1031 81.1611 65.9858 81.4661C65.8685 81.7711 65.7981 82.0996 65.7747 82.4516C65.7629 82.6627 65.7571 82.8797 65.7571 83.1026C65.7571 83.3255 65.7629 83.5484 65.7747 83.7713C65.7864 84.0998 65.8568 84.4107 65.9858 84.7039C66.1266 84.9855 66.326 85.2201 66.5841 85.4078C66.8539 85.5955 67.2 85.6894 67.6223 85.6894ZM74.4511 87.625C74.3455 87.625 74.2517 87.5839 74.1696 87.5018C74.0874 87.4197 74.0464 87.32 74.0464 87.2027V78.9146C74.0464 78.7856 74.0874 78.68 74.1696 78.5979C74.2517 78.5157 74.3514 78.4747 74.4687 78.4747H76.2284C76.3574 78.4747 76.463 78.5157 76.5451 78.5979C76.6272 78.68 76.6683 78.7856 76.6683 78.9146V85.6014L75.9644 85.1966L80.5572 78.7562C80.6158 78.6741 80.6804 78.6096 80.7507 78.5627C80.8329 78.504 80.9326 78.4747 81.0499 78.4747H82.6336C82.7509 78.4747 82.8506 78.5157 82.9327 78.5979C83.0149 78.68 83.0559 78.7738 83.0559 78.8794V87.1851C83.0559 87.3141 83.0149 87.4197 82.9327 87.5018C82.8506 87.5839 82.745 87.625 82.616 87.625H80.8563C80.739 87.625 80.6393 87.5839 80.5572 87.5018C80.4751 87.4197 80.434 87.3141 80.434 87.1851V80.7623L81.1555 80.8854L76.5275 87.3435C76.4806 87.4256 76.4161 87.496 76.334 87.5546C76.2518 87.6015 76.158 87.625 76.0524 87.625H74.4511ZM85.5526 87.625C85.4353 87.625 85.3356 87.5839 85.2535 87.5018C85.1713 87.4197 85.1303 87.3141 85.1303 87.1851V78.9146C85.1303 78.7856 85.1713 78.68 85.2535 78.5979C85.3356 78.5157 85.4353 78.4747 85.5526 78.4747H87.3123C87.4413 78.4747 87.5469 78.5157 87.629 78.5979C87.7111 78.68 87.7522 78.7856 87.7522 78.9146V81.9412H91.3243V78.9146C91.3243 78.7856 91.3654 78.68 91.4475 78.5979C91.5296 78.5157 91.6352 78.4747 91.7643 78.4747H93.5239C93.6412 78.4747 93.741 78.5157 93.8231 78.5979C93.9052 78.68 93.9463 78.7856 93.9463 78.9146V87.1851C93.9463 87.3141 93.9052 87.4197 93.8231 87.5018C93.741 87.5839 93.6412 87.625 93.5239 87.625H91.7643C91.6352 87.625 91.5296 87.5839 91.4475 87.5018C91.3654 87.4197 91.3243 87.3141 91.3243 87.1851V84.0177H87.7522V87.1851C87.7522 87.3141 87.7111 87.4197 87.629 87.5018C87.5469 87.5839 87.4413 87.625 87.3123 87.625H85.5526ZM98.9065 87.801C98.2847 87.801 97.7275 87.6837 97.2348 87.449C96.7421 87.2027 96.3491 86.8742 96.0558 86.4636C95.7625 86.053 95.6159 85.5955 95.6159 85.0911C95.6159 84.2582 95.9502 83.6012 96.6189 83.1202C97.2993 82.6393 98.1909 82.3108 99.2936 82.1348L101.599 81.8005V81.4837C101.599 81.0262 101.493 80.6743 101.282 80.4279C101.071 80.1816 100.701 80.0584 100.173 80.0584C99.7863 80.0584 99.4754 80.1346 99.2408 80.2872C99.0062 80.4397 98.8244 80.6391 98.6953 80.8854C98.6015 81.0379 98.4666 81.1142 98.2906 81.1142H96.6189C96.4899 81.1142 96.3901 81.079 96.3198 81.0086C96.2494 80.9265 96.22 80.8327 96.2318 80.7271C96.2318 80.5276 96.308 80.293 96.4605 80.0232C96.613 79.7534 96.8477 79.4894 97.1644 79.2313C97.4811 78.9615 97.8859 78.7386 98.3786 78.5627C98.8713 78.3867 99.4754 78.2987 100.191 78.2987C100.93 78.2987 101.564 78.3867 102.091 78.5627C102.619 78.7386 103.042 78.985 103.358 79.3017C103.675 79.6185 103.91 79.988 104.062 80.4103C104.215 80.8209 104.291 81.2667 104.291 81.7477V87.1851C104.291 87.3141 104.25 87.4197 104.168 87.5018C104.086 87.5839 103.98 87.625 103.851 87.625H102.127C102.009 87.625 101.91 87.5839 101.828 87.5018C101.745 87.4197 101.704 87.3141 101.704 87.1851V86.534C101.552 86.7569 101.347 86.9681 101.088 87.1675C100.83 87.3552 100.52 87.5077 100.156 87.625C99.8039 87.7423 99.3875 87.801 98.9065 87.801ZM99.6103 85.9709C99.9975 85.9709 100.344 85.8888 100.649 85.7246C100.954 85.5603 101.194 85.3081 101.37 84.9679C101.546 84.6277 101.634 84.1995 101.634 83.6833V83.3842L99.9975 83.6481C99.364 83.7537 98.9006 83.9121 98.6073 84.1232C98.3141 84.3344 98.1674 84.5925 98.1674 84.8975C98.1674 85.1204 98.2319 85.314 98.361 85.4782C98.5017 85.6424 98.6836 85.7656 98.9065 85.8477C99.1294 85.9298 99.364 85.9709 99.6103 85.9709ZM117.538 87.625C117.42 87.625 117.321 87.5839 117.238 87.5018C117.156 87.4197 117.115 87.3141 117.115 87.1851V83.2258C116.928 83.39 116.687 83.5308 116.394 83.6481C116.101 83.7537 115.778 83.8358 115.426 83.8945C115.086 83.9414 114.746 83.9649 114.405 83.9649C112.927 83.9649 111.83 83.6071 111.115 82.8915C110.411 82.1759 110.059 81.0966 110.059 79.6537V75.7472C110.059 75.6181 110.1 75.5126 110.182 75.4304C110.264 75.3483 110.364 75.3073 110.481 75.3073H112.417C112.546 75.3073 112.652 75.3483 112.734 75.4304C112.816 75.5126 112.857 75.6181 112.857 75.7472V79.5305C112.857 80.164 113.015 80.6332 113.332 80.9382C113.649 81.2432 114.188 81.3957 114.951 81.3957C115.174 81.3957 115.408 81.3782 115.655 81.343C115.901 81.296 116.136 81.2256 116.359 81.1318C116.582 81.0379 116.763 80.9089 116.904 80.7447C117.045 80.5804 117.115 80.3751 117.115 80.1288V75.7472C117.115 75.6181 117.156 75.5126 117.238 75.4304C117.321 75.3483 117.42 75.3073 117.538 75.3073H119.473C119.602 75.3073 119.708 75.3483 119.79 75.4304C119.872 75.5126 119.913 75.6181 119.913 75.7472V87.1851C119.913 87.3141 119.872 87.4197 119.79 87.5018C119.708 87.5839 119.602 87.625 119.473 87.625H117.538ZM122.791 87.625C122.685 87.625 122.591 87.5839 122.509 87.5018C122.427 87.4197 122.386 87.32 122.386 87.2027V78.9146C122.386 78.7856 122.427 78.68 122.509 78.5979C122.591 78.5157 122.691 78.4747 122.808 78.4747H124.568C124.697 78.4747 124.803 78.5157 124.885 78.5979C124.967 78.68 125.008 78.7856 125.008 78.9146V85.6014L124.304 85.1966L128.897 78.7562C128.955 78.6741 129.02 78.6096 129.09 78.5627C129.172 78.504 129.272 78.4747 129.389 78.4747H130.973C131.09 78.4747 131.19 78.5157 131.272 78.5979C131.354 78.68 131.395 78.7738 131.395 78.8794V87.1851C131.395 87.3141 131.354 87.4197 131.272 87.5018C131.19 87.5839 131.085 87.625 130.956 87.625H129.196C129.079 87.625 128.979 87.5839 128.897 87.5018C128.815 87.4197 128.774 87.3141 128.774 87.1851V80.7623L129.495 80.8854L124.867 87.3435C124.82 87.4256 124.756 87.496 124.673 87.5546C124.591 87.6015 124.498 87.625 124.392 87.625H122.791ZM133.892 87.625C133.775 87.625 133.675 87.5839 133.593 87.5018C133.511 87.4197 133.47 87.3141 133.47 87.1851V78.9146C133.47 78.7856 133.511 78.68 133.593 78.5979C133.675 78.5157 133.775 78.4747 133.892 78.4747H135.617C135.746 78.4747 135.851 78.5157 135.933 78.5979C136.015 78.68 136.057 78.7856 136.057 78.9146V81.9412H137.165L139.206 78.7562C139.242 78.6858 139.294 78.6213 139.365 78.5627C139.447 78.504 139.552 78.4747 139.681 78.4747H141.6C141.705 78.4747 141.793 78.5099 141.863 78.5803C141.946 78.6389 141.987 78.7152 141.987 78.809C141.987 78.8442 141.975 78.8853 141.951 78.9322C141.94 78.9791 141.922 79.0202 141.899 79.0554L139.418 82.8915L142.286 87.0619C142.333 87.1323 142.356 87.2085 142.356 87.2907C142.356 87.3845 142.321 87.4666 142.251 87.537C142.18 87.5957 142.092 87.625 141.987 87.625H139.857C139.74 87.625 139.64 87.6015 139.558 87.5546C139.488 87.496 139.423 87.4256 139.365 87.3435L137.148 84.0353H136.057V87.1851C136.057 87.3141 136.015 87.4197 135.933 87.5018C135.851 87.5839 135.746 87.625 135.617 87.625H133.892ZM144.219 87.625C144.114 87.625 144.02 87.5839 143.938 87.5018C143.856 87.4197 143.815 87.32 143.815 87.2027V78.9146C143.815 78.7856 143.856 78.68 143.938 78.5979C144.02 78.5157 144.12 78.4747 144.237 78.4747H145.997C146.126 78.4747 146.231 78.5157 146.314 78.5979C146.396 78.68 146.437 78.7856 146.437 78.9146V85.6014L145.733 85.1966L150.326 78.7562C150.384 78.6741 150.449 78.6096 150.519 78.5627C150.601 78.504 150.701 78.4747 150.818 78.4747H152.402C152.519 78.4747 152.619 78.5157 152.701 78.5979C152.783 78.68 152.824 78.7738 152.824 78.8794V87.1851C152.824 87.3141 152.783 87.4197 152.701 87.5018C152.619 87.5839 152.513 87.625 152.384 87.625H150.625C150.507 87.625 150.408 87.5839 150.326 87.5018C150.243 87.4197 150.202 87.3141 150.202 87.1851V80.7623L150.924 80.8854L146.296 87.3435C146.249 87.4256 146.184 87.496 146.102 87.5546C146.02 87.6015 145.926 87.625 145.821 87.625H144.219ZM155.321 87.625C155.204 87.625 155.104 87.5839 155.022 87.5018C154.94 87.4197 154.899 87.3141 154.899 87.1851V78.9146C154.899 78.7856 154.94 78.68 155.022 78.5979C155.104 78.5157 155.204 78.4747 155.321 78.4747H157.081C157.21 78.4747 157.315 78.5157 157.397 78.5979C157.48 78.68 157.521 78.7856 157.521 78.9146V81.9412H161.093V78.9146C161.093 78.7856 161.134 78.68 161.216 78.5979C161.298 78.5157 161.404 78.4747 161.533 78.4747H163.292C163.41 78.4747 163.509 78.5157 163.591 78.5979C163.674 78.68 163.715 78.7856 163.715 78.9146V87.1851C163.715 87.3141 163.674 87.4197 163.591 87.5018C163.509 87.5839 163.41 87.625 163.292 87.625H161.533C161.404 87.625 161.298 87.5839 161.216 87.5018C161.134 87.4197 161.093 87.3141 161.093 87.1851V84.0177H157.521V87.1851C157.521 87.3141 157.48 87.4197 157.397 87.5018C157.315 87.5839 157.21 87.625 157.081 87.625H155.321ZM168.675 87.801C168.053 87.801 167.496 87.6837 167.003 87.449C166.51 87.2027 166.117 86.8742 165.824 86.4636C165.531 86.053 165.384 85.5955 165.384 85.0911C165.384 84.2582 165.719 83.6012 166.387 83.1202C167.068 82.6393 167.959 82.3108 169.062 82.1348L171.367 81.8005V81.4837C171.367 81.0262 171.262 80.6743 171.05 80.4279C170.839 80.1816 170.47 80.0584 169.942 80.0584C169.555 80.0584 169.244 80.1346 169.009 80.2872C168.775 80.4397 168.593 80.6391 168.464 80.8854C168.37 81.0379 168.235 81.1142 168.059 81.1142H166.387C166.258 81.1142 166.159 81.079 166.088 81.0086C166.018 80.9265 165.988 80.8327 166 80.7271C166 80.5276 166.076 80.293 166.229 80.0232C166.381 79.7534 166.616 79.4894 166.933 79.2313C167.25 78.9615 167.654 78.7386 168.147 78.5627C168.64 78.3867 169.244 78.2987 169.959 78.2987C170.698 78.2987 171.332 78.3867 171.86 78.5627C172.388 78.7386 172.81 78.985 173.127 79.3017C173.444 79.6185 173.678 79.988 173.831 80.4103C173.983 80.8209 174.059 81.2667 174.059 81.7477V87.1851C174.059 87.3141 174.018 87.4197 173.936 87.5018C173.854 87.5839 173.749 87.625 173.62 87.625H171.895C171.778 87.625 171.678 87.5839 171.596 87.5018C171.514 87.4197 171.473 87.3141 171.473 87.1851V86.534C171.32 86.7569 171.115 86.9681 170.857 87.1675C170.599 87.3552 170.288 87.5077 169.924 87.625C169.572 87.7423 169.156 87.801 168.675 87.801ZM169.379 85.9709C169.766 85.9709 170.112 85.8888 170.417 85.7246C170.722 85.5603 170.962 85.3081 171.138 84.9679C171.314 84.6277 171.402 84.1995 171.402 83.6833V83.3842L169.766 83.6481C169.132 83.7537 168.669 83.9121 168.376 84.1232C168.082 84.3344 167.936 84.5925 167.936 84.8975C167.936 85.1204 168 85.314 168.129 85.4782C168.27 85.6424 168.452 85.7656 168.675 85.8477C168.898 85.9298 169.132 85.9709 169.379 85.9709Z" fill="#6767E0"/>
<path d="M64.5515 103.988C63.7574 103.988 63.0777 103.708 62.5122 103.149C61.9527 102.583 61.673 101.903 61.673 101.109C61.673 100.315 61.9527 99.6385 62.5122 99.079C63.0777 98.5135 63.7574 98.2308 64.5515 98.2308C65.0869 98.2308 65.5802 98.3661 66.0314 98.6369C66.4825 98.9076 66.8314 99.2715 67.0781 99.7287H66.3201C65.8689 99.1572 65.2794 98.8715 64.5515 98.8715C63.9319 98.8715 63.4025 99.091 62.9634 99.5302C62.5302 99.9633 62.3137 100.49 62.3137 101.109C62.3137 101.729 62.5302 102.258 62.9634 102.697C63.4025 103.131 63.9319 103.347 64.5515 103.347C64.9546 103.347 65.3245 103.248 65.6614 103.049C66.0043 102.851 66.275 102.583 66.4735 102.246H67.1954C66.9728 102.764 66.6209 103.185 66.1396 103.51C65.6644 103.828 65.135 103.988 64.5515 103.988ZM70.623 103.988C69.8289 103.988 69.1492 103.708 68.5837 103.149C68.0242 102.583 67.7445 101.903 67.7445 101.109C67.7445 100.315 68.0242 99.6385 68.5837 99.079C69.1492 98.5135 69.8289 98.2308 70.623 98.2308C71.4171 98.2308 72.0938 98.5135 72.6533 99.079C73.2188 99.6385 73.5015 100.315 73.5015 101.109C73.5015 101.175 73.4985 101.227 73.4925 101.263H68.8995V100.622H72.8067C72.6984 100.117 72.4397 99.6986 72.0307 99.3678C71.6216 99.0369 71.1524 98.8715 70.623 98.8715C70.0034 98.8715 69.474 99.094 69.0349 99.5392C68.6017 99.9783 68.3852 100.502 68.3852 101.109C68.3852 101.711 68.6047 102.234 69.0439 102.679C69.483 103.125 70.0094 103.347 70.623 103.347C70.9839 103.347 71.3238 103.266 71.6426 103.103C71.9615 102.935 72.2262 102.706 72.4367 102.418H73.1857C72.945 102.893 72.5931 103.275 72.1299 103.564C71.6727 103.846 71.1704 103.988 70.623 103.988ZM74.1607 98.2308H74.8014L76.7775 102.67L78.7537 98.2308H79.3943V103.988H78.7537V99.8009L76.8948 103.988H76.6602L74.8014 99.8009V103.988H74.1607V98.2308ZM82.9334 103.988C82.1393 103.988 81.4595 103.708 80.8941 103.149C80.3346 102.583 80.0549 101.903 80.0549 101.109C80.0549 100.315 80.3346 99.6385 80.8941 99.079C81.4595 98.5135 82.1393 98.2308 82.9334 98.2308C83.7275 98.2308 84.4042 98.5135 84.9637 99.079C85.5291 99.6385 85.8119 100.315 85.8119 101.109C85.8119 101.175 85.8089 101.227 85.8029 101.263H81.2099V100.622H85.1171C85.0088 100.117 84.7501 99.6986 84.341 99.3678C83.932 99.0369 83.4628 98.8715 82.9334 98.8715C82.3138 98.8715 81.7844 99.094 81.3452 99.5392C80.9121 99.9783 80.6956 100.502 80.6956 101.109C80.6956 101.711 80.9151 102.234 81.3543 102.679C81.7934 103.125 82.3198 103.347 82.9334 103.347C83.2943 103.347 83.6342 103.266 83.953 103.103C84.2719 102.935 84.5366 102.706 84.7471 102.418H85.4961C85.2554 102.893 84.9035 103.275 84.4403 103.564C83.9831 103.846 83.4808 103.988 82.9334 103.988ZM88.577 103.988C87.9573 103.988 87.428 103.768 86.9888 103.329C86.5497 102.89 86.3301 102.361 86.3301 101.741V98.2308H86.9708V101.741C86.9708 102.18 87.1272 102.559 87.44 102.878C87.7588 103.191 88.1378 103.347 88.577 103.347C89.0221 103.347 89.4011 103.191 89.7139 102.878C90.0267 102.559 90.1831 102.18 90.1831 101.741V98.2308H90.8148V101.741V103.988H90.1831V103.302C89.738 103.759 89.2026 103.988 88.577 103.988ZM89.6778 96.6336V96.6517C89.6778 96.9525 89.5695 97.2111 89.353 97.4277C89.1364 97.6443 88.8777 97.7525 88.577 97.7525C88.2762 97.7525 88.0175 97.6443 87.8009 97.4277C87.5844 97.2111 87.4761 96.9525 87.4761 96.6517V96.6336H87.9543V96.6517C87.9543 96.8261 88.0145 96.9735 88.1348 97.0938C88.2611 97.2141 88.4085 97.2743 88.577 97.2743C88.7454 97.2743 88.8898 97.2141 89.0101 97.0938C89.1364 96.9735 89.1996 96.8261 89.1996 96.6517V96.6336H89.6778ZM92.1522 98.2308V100.532H95.0939V98.2308H95.7346V103.988H95.0939V101.172H92.1522V103.988H91.5116V98.2308H92.1522ZM96.4285 98.2308H97.0601V103.347H98.4046C98.7535 103.347 99.0543 103.221 99.307 102.968C99.5596 102.715 99.6859 102.415 99.6859 102.066C99.6859 101.711 99.5596 101.41 99.307 101.163C99.0603 100.911 98.7595 100.784 98.4046 100.784H97.5113V100.144H98.4046C98.934 100.144 99.3852 100.333 99.7581 100.712C100.137 101.085 100.327 101.536 100.327 102.066C100.327 102.589 100.137 103.04 99.7581 103.419C99.3852 103.798 98.934 103.988 98.4046 103.988H96.4285V98.2308ZM100.769 103.988V98.2308H101.409V103.988H100.769ZM104.368 103.988C103.748 103.988 103.219 103.768 102.78 103.329C102.341 102.89 102.121 102.361 102.121 101.741V98.2308H102.762V101.741C102.762 102.18 102.918 102.559 103.231 102.878C103.55 103.191 103.929 103.347 104.368 103.347C104.813 103.347 105.192 103.191 105.505 102.878C105.818 102.559 105.974 102.18 105.974 101.741V98.2308H106.606V101.741V103.988H105.974V103.302C105.529 103.759 104.994 103.988 104.368 103.988ZM105.469 96.6336V96.6517C105.469 96.9525 105.361 97.2111 105.144 97.4277C104.928 97.6443 104.669 97.7525 104.368 97.7525C104.067 97.7525 103.809 97.6443 103.592 97.4277C103.376 97.2111 103.267 96.9525 103.267 96.6517V96.6336H103.745V96.6517C103.745 96.8261 103.806 96.9735 103.926 97.0938C104.052 97.2141 104.2 97.2743 104.368 97.2743C104.537 97.2743 104.681 97.2141 104.801 97.0938C104.928 96.9735 104.991 96.8261 104.991 96.6517V96.6336H105.469ZM111.072 98.8715V103.988H110.431V98.2308H114.654V103.988H114.013V98.8715H111.072ZM118.181 103.988C117.387 103.988 116.708 103.708 116.142 103.149C115.583 102.583 115.303 101.903 115.303 101.109C115.303 100.315 115.583 99.6385 116.142 99.079C116.708 98.5135 117.387 98.2308 118.181 98.2308C118.717 98.2308 119.21 98.3661 119.661 98.6369C120.112 98.9076 120.461 99.2715 120.708 99.7287H119.95C119.499 99.1572 118.909 98.8715 118.181 98.8715C117.562 98.8715 117.032 99.091 116.593 99.5302C116.16 99.9633 115.944 100.49 115.944 101.109C115.944 101.729 116.16 102.258 116.593 102.697C117.032 103.131 117.562 103.347 118.181 103.347C118.585 103.347 118.954 103.248 119.291 103.049C119.634 102.851 119.905 102.583 120.103 102.246H120.825C120.603 102.764 120.251 103.185 119.77 103.51C119.294 103.828 118.765 103.988 118.181 103.988ZM123.657 103.988C123.038 103.988 122.508 103.768 122.069 103.329C121.63 102.89 121.411 102.361 121.411 101.741V98.2308H122.051V101.741C122.051 102.18 122.208 102.559 122.52 102.878C122.839 103.191 123.218 103.347 123.657 103.347C124.097 103.347 124.473 103.191 124.785 102.878C125.104 102.559 125.264 102.18 125.264 101.741V98.2308H125.895V103.988H125.264V103.302C124.806 103.759 124.271 103.988 123.657 103.988ZM130.545 103.988H129.832L128.523 101.389L127.215 103.988H126.502L128.163 100.685L126.926 98.2308H127.639L128.523 99.9723L129.399 98.2308H130.121L128.884 100.685L130.545 103.988ZM135.579 103.149C135.02 103.708 134.343 103.988 133.549 103.988C132.755 103.988 132.075 103.708 131.51 103.149C130.95 102.583 130.671 101.903 130.671 101.109C130.671 100.315 130.95 99.6385 131.51 99.079C132.075 98.5135 132.755 98.2308 133.549 98.2308C134.343 98.2308 135.02 98.5135 135.579 99.079C136.145 99.6385 136.428 100.315 136.428 101.109C136.428 101.903 136.145 102.583 135.579 103.149ZM131.961 102.697C132.4 103.131 132.93 103.347 133.549 103.347C134.169 103.347 134.695 103.131 135.128 102.697C135.567 102.258 135.787 101.729 135.787 101.109C135.787 100.49 135.567 99.9633 135.128 99.5302C134.695 99.091 134.169 98.8715 133.549 98.8715C132.93 98.8715 132.4 99.091 131.961 99.5302C131.528 99.9633 131.311 100.49 131.311 101.109C131.311 101.729 131.528 102.258 131.961 102.697ZM141.168 103.988H140.474L138.687 99.846L136.9 103.988H136.205L138.687 98.2308L141.168 103.988ZM145.986 103.149C145.427 103.708 144.75 103.988 143.956 103.988C143.162 103.988 142.482 103.708 141.917 103.149C141.357 102.583 141.078 101.903 141.078 101.109C141.078 100.315 141.357 99.6385 141.917 99.079C142.482 98.5135 143.162 98.2308 143.956 98.2308C144.75 98.2308 145.427 98.5135 145.986 99.079C146.552 99.6385 146.835 100.315 146.835 101.109C146.835 101.903 146.552 102.583 145.986 103.149ZM142.368 102.697C142.807 103.131 143.337 103.347 143.956 103.347C144.576 103.347 145.102 103.131 145.535 102.697C145.974 102.258 146.194 101.729 146.194 101.109C146.194 100.49 145.974 99.9633 145.535 99.5302C145.102 99.091 144.576 98.8715 143.956 98.8715C143.337 98.8715 142.807 99.091 142.368 99.5302C141.935 99.9633 141.718 100.49 141.718 101.109C141.718 101.729 141.935 102.258 142.368 102.697ZM149.14 103.988C148.653 103.988 148.238 103.816 147.895 103.473C147.552 103.125 147.381 102.709 147.381 102.228C147.381 101.867 147.465 101.563 147.633 101.317C147.802 101.07 148.006 100.887 148.247 100.766C148.494 100.64 148.737 100.529 148.978 100.433C149.218 100.33 149.423 100.213 149.591 100.081C149.76 99.9423 149.844 99.7738 149.844 99.5753C149.844 99.3828 149.775 99.2174 149.636 99.079C149.498 98.9406 149.333 98.8715 149.14 98.8715C148.948 98.8715 148.782 98.9406 148.644 99.079C148.506 99.2174 148.436 99.3828 148.436 99.5753H147.796C147.796 99.2023 147.925 98.8865 148.184 98.6278C148.448 98.3631 148.767 98.2308 149.14 98.2308C149.513 98.2308 149.829 98.3631 150.088 98.6278C150.352 98.8865 150.485 99.2023 150.485 99.5753C150.485 99.8881 150.4 100.147 150.232 100.351C150.064 100.55 149.856 100.7 149.609 100.802C149.369 100.905 149.128 101.007 148.888 101.109C148.647 101.206 148.442 101.347 148.274 101.533C148.106 101.714 148.021 101.945 148.021 102.228C148.021 102.535 148.13 102.8 148.346 103.022C148.569 103.239 148.833 103.347 149.14 103.347C149.447 103.347 149.709 103.242 149.925 103.031C150.142 102.815 150.253 102.553 150.259 102.246H150.9C150.894 102.728 150.719 103.14 150.376 103.482C150.034 103.819 149.621 103.988 149.14 103.988Z" fill="#6767E0"/>
<g clip-path="url(#clip1_203_572)">
<path d="M122.959 17.1436C121.871 17.1436 120.873 17.5147 120.074 18.1321C119.617 17.8591 119.084 17.6994 118.512 17.6994C116.824 17.6994 115.455 19.0681 115.455 20.7564C115.455 20.8569 115.461 20.9561 115.47 21.0542C114.52 21.1828 113.788 21.9947 113.788 22.9797C113.788 23.3009 113.867 23.6031 114.005 23.8701C113.704 24.1249 113.51 24.5004 113.51 24.9251C113.51 25.6926 114.132 26.3147 114.899 26.3147C115.667 26.3147 116.289 25.6926 116.289 24.9251C116.289 24.8979 116.282 24.8725 116.281 24.8456C116.87 24.6728 117.342 24.2291 117.554 23.6582C117.856 23.7577 118.177 23.8135 118.512 23.8135C118.56 23.8135 118.606 23.8086 118.653 23.8064C119.394 25.448 121.041 26.5927 122.959 26.5927C125.568 26.5927 127.683 24.4774 127.683 21.8681C127.683 19.2588 125.568 17.1436 122.959 17.1436Z" fill="#E6E6FA" fill-opacity="0.3"/>
<path d="M124.904 24.6473C123.089 24.6473 121.91 23.493 121.377 21.8749C121.323 21.71 121.174 21.5943 121.001 21.593C120.866 21.5921 120.736 21.5902 120.736 21.5902C118.76 21.5902 117.156 20.0031 117.126 18.0344C116.135 18.5401 115.455 19.5679 115.455 20.7565C115.455 20.857 115.461 20.9562 115.47 21.0542C114.52 21.1829 113.788 21.9948 113.788 22.9798C113.788 23.3009 113.867 23.6031 114.005 23.8701C113.639 24.1802 113.43 24.6688 113.538 25.2075C113.645 25.7401 114.071 26.174 114.603 26.284C115.5 26.4696 116.289 25.7895 116.289 24.9252C116.289 24.8979 116.282 24.8725 116.281 24.8456C116.87 24.6729 117.342 24.2291 117.554 23.6583C117.856 23.7578 118.177 23.8135 118.512 23.8135C118.56 23.8135 118.606 23.8086 118.653 23.8064C119.394 25.4481 121.041 26.5927 122.959 26.5927C124.815 26.5927 126.416 25.5202 127.189 23.9636C126.532 24.3947 125.748 24.6473 124.904 24.6473Z" fill="#6767E0" fill-opacity="0.3"/>
</g>
<defs>
<clipPath id="clip0_203_572">
<rect width="22.2699" height="23.8606" fill="white" transform="translate(104.267 40.811)"/>
</clipPath>
<clipPath id="clip1_203_572">
<rect width="15.2546" height="9.70745" fill="white" transform="translate(113.523 16.8838)"/>
</clipPath>
</defs>
</svg>
