<svg width="249" height="158" viewBox="0 0 249 158" fill="none" xmlns="http://www.w3.org/2000/svg">
<g filter="url(#filter0_d_203_900)">
<rect x="18.562" y="14" width="212" height="122" rx="12" fill="white"/>
<path d="M131.766 72.2542H114.047L110.35 78.2139H135.463L131.766 72.2542Z" fill="#6767E0"/>
<path d="M121.291 46.6069C121.283 46.6121 111.504 54.1341 107.881 56.9203V72.2549H134.7V56.9203L121.291 46.6069Z" fill="#E6E6FA"/>
<path d="M121.291 46.607C121.288 46.6095 106.553 57.9424 106.553 57.9425C106.123 58.2704 105.571 58.4454 104.976 58.3873C103.853 58.2785 103.239 57.6371 103.024 56.685C102.813 55.7531 103.186 54.8889 103.847 54.3845L119.939 42.0179C120.737 41.4099 121.846 41.4095 122.644 42.0179C133.08 50.038 121.119 40.8447 138.736 54.3845C139.272 54.7928 139.618 55.4379 139.618 56.1635C139.618 57.398 138.617 58.3984 137.383 58.3984C136.874 58.3984 136.405 58.2286 136.03 57.9425L121.291 46.607Z" fill="#6767E0"/>
<path d="M134.7 41.5618V51.2807L134.699 51.2822L130.23 47.8479V41.5618H134.7Z" fill="#6767E0"/>
<path d="M116.374 75.9789C116.374 77.2134 115.374 78.2139 114.139 78.2139H105.945C104.299 78.2139 102.965 76.8796 102.965 75.234C102.965 74.1195 103.584 73.1592 104.49 72.6482C104.66 70.8565 106.083 69.4291 107.882 69.2861C109.145 69.1808 110.427 69.7401 111.215 70.852C111.437 70.7991 111.666 70.7641 111.905 70.7641C113.551 70.7641 114.884 72.099 114.884 73.744C114.884 73.7895 114.873 73.8319 114.871 73.8766C115.749 74.1827 116.374 75.0084 116.374 75.9789Z" fill="#58B741"/>
<path d="M116.374 76.1C116.374 77.2675 115.428 78.2139 114.26 78.2139H106.509C104.953 78.2139 103.691 76.9519 103.691 75.3953C103.691 74.3412 104.276 73.4329 105.133 72.9495C105.294 71.2549 106.64 69.9048 108.341 69.7695C109.536 69.6699 110.749 70.1989 111.495 71.2506C111.705 71.2006 111.921 71.1675 112.146 71.1675C113.704 71.1675 114.965 72.4301 114.965 73.986C114.965 74.029 114.954 74.0692 114.952 74.1115C115.783 74.4009 116.374 75.182 116.374 76.1Z" fill="#70D65B"/>
<rect x="116.712" y="57.6313" width="9.03889" height="9.03889" rx="0.795354" stroke="#6767E0" stroke-width="1.59071"/>
<rect x="116.378" y="62.4933" width="0.685285" height="9.94432" rx="0.342643" transform="rotate(-90 116.378 62.4933)" stroke="#6767E0" stroke-width="0.685285"/>
<rect x="120.973" y="57.2125" width="0.75315" height="9.87645" rx="0.376575" stroke="#6767E0" stroke-width="0.75315"/>
<g clip-path="url(#clip0_203_900)">
<path d="M132.421 74.8006C131.646 74.7413 131.029 74.2323 130.855 73.5781C130.359 74.0768 129.551 74.2549 128.839 73.9684C128.128 73.6817 127.727 73.0172 127.795 72.3467C127.149 72.6702 126.323 72.5988 125.752 72.1172C125.181 71.6353 125.038 70.8886 125.339 70.2743C124.614 70.3903 123.856 70.0783 123.487 69.4533C123.116 68.8276 123.246 68.0776 123.751 67.5858C123.022 67.4789 122.417 66.9586 122.29 66.2563C122.165 65.556 122.553 64.8865 123.204 64.5717C122.554 64.2557 122.167 63.5858 122.295 62.8855C122.423 62.1837 123.028 61.6642 123.757 61.5587C123.254 61.066 123.126 60.3159 123.497 59.6912C123.868 59.0666 124.625 58.7566 125.351 58.8734C125.051 58.2587 125.196 57.5123 125.768 57.0319C126.34 56.5506 127.166 56.4812 127.812 56.8065C127.745 56.1352 128.147 55.4711 128.859 55.1854C129.572 54.9 130.38 55.08 130.875 55.5801C131.051 54.9258 131.668 54.4174 132.444 54.3599C133.218 54.3024 133.916 54.711 134.206 55.3289C134.604 54.7626 135.367 54.4644 136.121 54.6384C136.875 54.8128 137.392 55.4077 137.447 56.08C138.026 55.6626 138.854 55.6078 139.505 55.9972C140.155 56.3864 140.431 57.1014 140.245 57.7526C140.939 57.5294 141.742 57.7222 142.219 58.2821C142.697 58.843 142.705 59.6018 142.297 60.1632C143.035 60.1572 143.727 60.5783 143.979 61.2511C144.232 61.9243 143.969 62.6443 143.383 63.0539C144.081 63.2678 144.585 63.8707 144.585 64.581V64.6032C144.583 65.3131 144.079 65.9149 143.38 66.1275C143.965 66.5379 144.226 67.259 143.972 67.9309C143.718 68.603 143.025 69.0228 142.288 69.0158C142.694 69.5776 142.684 70.3364 142.205 70.896C141.726 71.4554 140.923 71.6469 140.229 71.4223C140.414 72.0738 140.137 72.7885 139.486 73.1764C138.834 73.5647 138.006 73.5087 137.427 73.0894C137.371 73.7617 136.853 74.3562 136.099 74.5292C135.344 74.7017 134.582 74.4021 134.185 73.8349C133.912 74.4123 133.282 74.8061 132.569 74.8061C132.52 74.8061 132.47 74.8043 132.421 74.8006Z" fill="#70D65B"/>
<path d="M132.438 55.1845C132.738 55.065 133.036 55.0074 133.308 55.0074C133.683 55.0074 134.008 55.1181 134.207 55.3282C133.935 54.7491 133.305 54.3535 132.589 54.3535C132.542 54.3535 132.493 54.3555 132.445 54.359C132.072 54.3859 131.718 54.5214 131.436 54.7456C131.159 54.964 130.964 55.2554 130.876 55.5796C130.541 55.2406 130.062 55.0488 129.566 55.0488C129.331 55.0488 129.091 55.0924 128.86 55.1846C128.2 55.4497 127.806 56.0396 127.806 56.66C127.806 56.7083 127.808 56.7569 127.813 56.8057C127.552 56.6745 127.259 56.6058 126.961 56.606C126.535 56.606 126.108 56.7461 125.769 57.031C125.391 57.3483 125.199 57.7818 125.199 58.2167C125.199 58.4401 125.25 58.6639 125.352 58.8726C125.251 58.8564 125.15 58.8483 125.048 58.8484C124.423 58.8484 123.818 59.1529 123.499 59.6901C123.358 59.9255 123.284 60.1894 123.284 60.4576C123.284 60.8627 123.451 61.2577 123.758 61.5577C123.397 61.6106 123.063 61.7643 122.801 61.9977C122.534 62.2365 122.356 62.5473 122.296 62.8846C122.28 62.9727 122.271 63.0619 122.271 63.1513C122.271 63.7506 122.638 64.2952 123.205 64.5707C122.637 64.8457 122.268 65.3918 122.268 65.992C122.268 66.0792 122.276 66.1668 122.292 66.2553C122.352 66.5929 122.528 66.9041 122.796 67.1432C123.057 67.3774 123.391 67.5316 123.752 67.5847C123.446 67.8839 123.275 68.2781 123.275 68.6877C123.275 68.9463 123.344 69.2092 123.488 69.4526C123.806 69.9909 124.413 70.2975 125.039 70.2975C125.139 70.2975 125.24 70.2897 125.341 70.2732C125.239 70.4807 125.186 70.7054 125.187 70.9326C125.187 71.3666 125.377 71.799 125.753 72.1162C126.092 72.4022 126.521 72.5433 126.948 72.5433C127.244 72.5434 127.536 72.4754 127.796 72.3456C127.791 72.3945 127.788 72.4436 127.788 72.4927C127.788 73.1117 128.181 73.702 128.84 73.9673C129.064 74.0575 129.306 74.1043 129.55 74.1045C129.796 74.1043 130.039 74.0573 130.264 73.9665C130.489 73.8757 130.69 73.7431 130.856 73.5771C131.03 74.2315 131.647 74.7406 132.422 74.7997C132.472 74.8035 132.521 74.805 132.57 74.805C132.927 74.805 133.263 74.7067 133.543 74.536C133.641 74.476 133.733 74.4075 133.816 74.3314C133.68 74.3658 133.535 74.382 133.388 74.382C133.07 74.382 132.734 74.3077 132.418 74.1802C131.759 73.9146 131.366 73.1417 131.366 72.4962C131.366 72.445 131.369 72.3948 131.374 72.3457C131.114 72.4754 130.822 72.5434 130.526 72.5433C130.098 72.5433 129.67 72.4022 129.331 72.1162C128.955 71.799 128.764 71.3666 128.764 70.9326C128.764 70.7083 128.816 70.483 128.918 70.2732C128.818 70.2897 128.717 70.2975 128.617 70.2975C127.991 70.2975 127.385 69.9909 127.066 69.4526C126.926 69.2179 126.853 68.9549 126.853 68.6877C126.853 68.2818 127.022 67.8852 127.33 67.5847C126.969 67.5317 126.635 67.3774 126.374 67.1432C126.106 66.9041 125.93 66.5929 125.87 66.2553C125.854 66.1682 125.846 66.0802 125.846 65.992C125.846 65.3918 126.215 64.8457 126.783 64.5706C126.216 64.2952 125.849 63.7505 125.849 63.1512C125.849 63.0633 125.857 62.9741 125.873 62.8846C125.934 62.5472 126.112 62.2364 126.38 61.9976C126.641 61.7642 126.975 61.6105 127.336 61.5576C127.029 61.2582 126.862 60.8626 126.862 60.4581C126.862 60.1983 126.931 59.9348 127.077 59.6901C127.396 59.1529 128.001 58.8483 128.626 58.8483C128.727 58.8483 128.828 58.8561 128.93 58.8725C128.829 58.6661 128.777 58.4426 128.777 58.2167C128.777 57.7817 128.969 57.3483 129.347 57.031C129.686 56.7461 130.113 56.6059 130.539 56.6059C130.837 56.6058 131.13 56.6745 131.391 56.8056C131.386 56.7574 131.384 56.709 131.384 56.6605C131.384 56.0405 131.778 55.4496 132.438 55.1845Z" fill="#58B741"/>
<path d="M138.831 78.214H128.022C130.179 78.214 130.953 76.5363 130.953 75.9592V71.2538C131.144 71.3605 131.356 71.4326 131.577 71.4662C131.627 71.4737 131.676 71.4792 131.725 71.483C131.774 71.487 131.823 71.489 131.872 71.489C132.526 71.489 133.122 71.1549 133.424 70.6387C133.724 71.1602 134.323 71.4983 134.982 71.4983C135.076 71.4983 135.171 71.4914 135.267 71.4771C135.491 71.4442 135.706 71.3717 135.899 71.2636V75.9592C135.899 76.5363 136.673 78.214 138.831 78.214Z" fill="#AD7136"/>
<path d="M131.872 71.4891C132.103 71.4891 132.328 71.4473 132.534 71.3706V75.9593C132.534 76.5364 132.254 78.2141 131.476 78.2141H128.022C130.179 78.2141 130.953 76.5364 130.953 75.9593V71.2539C131.144 71.3606 131.356 71.4328 131.577 71.4666C131.627 71.4738 131.676 71.4793 131.725 71.4831C131.774 71.4871 131.823 71.4892 131.872 71.4892L131.872 71.4891Z" fill="#8C531F"/>
<path d="M139.139 63.3207C139.032 63.3207 138.93 63.2818 138.854 63.2126C138.778 63.1434 138.736 63.0496 138.736 62.9517C138.736 62.4365 138.394 61.9871 138.192 61.8027C138.155 61.7684 138.125 61.7277 138.105 61.683C138.085 61.6382 138.074 61.5902 138.074 61.5418C138.074 61.4933 138.085 61.4453 138.105 61.4006C138.125 61.3558 138.155 61.3151 138.193 61.2809C138.268 61.2117 138.371 61.1728 138.478 61.1729C138.531 61.1729 138.584 61.1824 138.633 61.201C138.682 61.2195 138.726 61.2467 138.764 61.281C139.123 61.6095 139.543 62.2445 139.543 62.9517C139.543 63.0002 139.533 63.0481 139.512 63.0929C139.492 63.1377 139.462 63.1784 139.425 63.2126C139.387 63.2469 139.343 63.2741 139.294 63.2926C139.245 63.3112 139.192 63.3207 139.139 63.3207Z" fill="#AD7136"/>
<path d="M139.858 65.9212C139.719 65.9801 139.576 65.9426 139.442 65.8583C139.359 65.806 139.262 65.7762 139.161 65.7724C139.157 65.7724 139.154 65.7722 139.15 65.7722C139.041 65.7701 138.931 65.7988 138.837 65.8583C138.703 65.9426 138.56 65.9801 138.421 65.9212C136.701 65.1906 136.678 63.2027 137.37 62.7008C137.558 62.5643 137.751 62.5206 137.937 62.5295C138.278 62.5457 138.601 62.7365 138.848 62.8559C138.964 62.9116 139.062 62.9519 139.139 62.9519C139.472 62.9519 140.217 62.199 140.909 62.7008C141.601 63.2027 141.578 65.1906 139.858 65.9212Z" fill="#FF3434"/>
<path d="M139.15 65.7721C139.041 65.77 138.931 65.7987 138.837 65.8583C138.703 65.9426 138.56 65.98 138.421 65.9211C136.701 65.1905 136.678 63.2027 137.37 62.7007C137.558 62.5642 137.751 62.5205 137.937 62.5294C138.278 62.5456 138.601 62.7364 138.848 62.8558C137.102 62.8558 138.408 65.7434 139.15 65.7721Z" fill="#DB2727"/>
<path d="M129.197 59.5586C129.09 59.5586 128.987 59.5197 128.911 59.4505C128.836 59.3813 128.793 59.2875 128.793 59.1896C128.793 58.49 129.208 57.862 129.564 57.5367C129.64 57.4675 129.743 57.4287 129.85 57.4287C129.957 57.4287 130.06 57.4675 130.135 57.5367C130.173 57.571 130.203 57.6116 130.223 57.6564C130.243 57.7012 130.254 57.7492 130.254 57.7977C130.254 57.8461 130.243 57.8941 130.223 57.9389C130.203 57.9837 130.173 58.0244 130.135 58.0586C129.937 58.2401 129.601 58.6826 129.601 59.1897C129.601 59.2381 129.59 59.2861 129.57 59.3309C129.55 59.3757 129.52 59.4164 129.482 59.4506C129.445 59.4849 129.4 59.5121 129.351 59.5306C129.302 59.5491 129.25 59.5587 129.197 59.5586H129.197Z" fill="#AD7136"/>
<path d="M129.906 62.1222C129.769 62.1805 129.628 62.1435 129.496 62.0603C129.414 62.0087 129.318 61.9793 129.218 61.9755C129.215 61.9755 129.211 61.9753 129.207 61.9753C129.097 61.9732 128.989 62.0029 128.898 62.0603C128.766 62.1435 128.624 62.1805 128.487 62.1222C126.79 61.401 126.766 59.4382 127.45 58.9427C127.636 58.8078 127.826 58.7648 128.01 58.7735C128.347 58.7896 128.665 58.9778 128.91 59.096C129.023 59.151 129.121 59.1906 129.197 59.1906C129.525 59.1906 130.261 58.4473 130.944 58.9429C131.627 59.4382 131.604 61.401 129.906 62.1222Z" fill="#FF3434"/>
<path d="M129.207 61.9752C129.097 61.9732 128.989 62.003 128.898 62.0604C128.766 62.1436 128.624 62.1805 128.487 62.1223C126.79 61.401 126.766 59.4383 127.45 58.9427C127.636 58.8078 127.826 58.7647 128.01 58.7736C128.347 58.7896 128.665 58.9779 128.91 59.0958C127.185 59.096 128.474 61.947 129.207 61.9752Z" fill="#DB2727"/>
<path d="M131.829 66.8429C131.721 66.8429 131.619 66.8041 131.543 66.7349C131.467 66.6657 131.425 66.5718 131.425 66.4739C131.425 65.7742 131.84 65.1461 132.196 64.821C132.234 64.7868 132.278 64.7596 132.327 64.741C132.376 64.7224 132.429 64.7129 132.482 64.7129C132.535 64.7129 132.587 64.7224 132.636 64.741C132.685 64.7596 132.73 64.7868 132.767 64.821C132.843 64.8902 132.885 64.9841 132.885 65.0819C132.885 65.1797 132.843 65.2736 132.767 65.3428C132.568 65.5242 132.232 65.9668 132.232 66.4739C132.232 66.5718 132.19 66.6656 132.114 66.7348C132.038 66.804 131.936 66.8429 131.829 66.8429Z" fill="#AD7136"/>
<path d="M132.537 69.1593C132.4 69.2176 132.259 69.1806 132.127 69.0974C132.045 69.0458 131.949 69.0164 131.85 69.0126C131.846 69.0126 131.842 69.0126 131.839 69.0124C131.728 69.0102 131.62 69.04 131.529 69.0974C131.397 69.1806 131.256 69.2175 131.119 69.1593C129.421 68.4383 129.398 66.4753 130.081 65.98C130.267 65.8449 130.457 65.8019 130.641 65.8107C130.978 65.8267 131.296 66.015 131.541 66.133C131.654 66.188 131.752 66.2277 131.828 66.2277C132.157 66.2277 132.892 65.4844 133.576 65.98C134.259 66.4753 134.235 68.4383 132.537 69.1593Z" fill="#FF3434"/>
<path d="M131.839 69.0124C131.728 69.0103 131.62 69.04 131.529 69.0974C131.397 69.1806 131.256 69.2176 131.119 69.1593C129.421 68.4381 129.398 66.4753 130.081 65.9798C130.267 65.8449 130.457 65.8019 130.641 65.8106C130.978 65.8267 131.296 66.015 131.541 66.1331C129.816 66.1331 131.106 68.9841 131.839 69.0124Z" fill="#DB2727"/>
</g>
<path d="M57.1083 101.168C56.991 101.168 56.8854 101.127 56.7915 101.045C56.7094 100.963 56.6684 100.857 56.6684 100.728V89.2902C56.6684 89.1611 56.7094 89.0555 56.7915 88.9734C56.8854 88.8913 56.991 88.8502 57.1083 88.8502H58.7448C58.9208 88.8502 59.0498 88.8972 59.1319 88.991C59.2258 89.0849 59.2903 89.1552 59.3255 89.2022L62.5633 95.1675L65.8363 89.2022C65.8597 89.1552 65.9125 89.0849 65.9947 88.991C66.0885 88.8972 66.2234 88.8502 66.3994 88.8502H68.0359C68.1649 88.8502 68.2705 88.8913 68.3526 88.9734C68.4347 89.0555 68.4758 89.1611 68.4758 89.2902V100.728C68.4758 100.857 68.4347 100.963 68.3526 101.045C68.2705 101.127 68.1649 101.168 68.0359 101.168H66.241C66.1237 101.168 66.024 101.127 65.9419 101.045C65.8597 100.963 65.8187 100.857 65.8187 100.728V93.619L63.5839 97.807C63.5252 97.9126 63.449 98.0064 63.3551 98.0885C63.2613 98.1707 63.1381 98.2117 62.9856 98.2117H62.1586C62.0061 98.2117 61.8829 98.1707 61.789 98.0885C61.6952 98.0064 61.6189 97.9126 61.5603 97.807L59.3255 93.619V100.728C59.3255 100.857 59.2844 100.963 59.2023 101.045C59.1202 101.127 59.0205 101.168 58.9032 101.168H57.1083ZM73.5848 101.344C72.963 101.344 72.4058 101.227 71.9131 100.992C71.4204 100.746 71.0274 100.417 70.7341 100.007C70.4408 99.596 70.2942 99.1385 70.2942 98.634C70.2942 97.8011 70.6285 97.1442 71.2972 96.6632C71.9776 96.1822 72.8692 95.8537 73.9719 95.6778L76.2771 95.3434V95.0267C76.2771 94.5692 76.1715 94.2172 75.9603 93.9709C75.7492 93.7245 75.3796 93.6014 74.8517 93.6014C74.4646 93.6014 74.1537 93.6776 73.9191 93.8301C73.6845 93.9826 73.5026 94.1821 73.3736 94.4284C73.2798 94.5809 73.1448 94.6572 72.9689 94.6572H71.2972C71.1681 94.6572 71.0684 94.622 70.998 94.5516C70.9277 94.4695 70.8983 94.3756 70.9101 94.27C70.9101 94.0706 70.9863 93.836 71.1388 93.5662C71.2913 93.2964 71.5259 93.0324 71.8427 92.7743C72.1594 92.5045 72.5642 92.2816 73.0569 92.1056C73.5496 91.9297 74.1537 91.8417 74.8693 91.8417C75.6084 91.8417 76.2419 91.9297 76.7698 92.1056C77.2977 92.2816 77.72 92.528 78.0367 92.8447C78.3535 93.1614 78.5881 93.531 78.7406 93.9533C78.8931 94.3639 78.9694 94.8097 78.9694 95.2907V100.728C78.9694 100.857 78.9283 100.963 78.8462 101.045C78.7641 101.127 78.6585 101.168 78.5295 101.168H76.805C76.6877 101.168 76.5879 101.127 76.5058 101.045C76.4237 100.963 76.3827 100.857 76.3827 100.728V100.077C76.2301 100.3 76.0249 100.511 75.7668 100.71C75.5087 100.898 75.1978 101.051 74.8341 101.168C74.4822 101.285 74.0657 101.344 73.5848 101.344ZM74.2886 99.5139C74.6758 99.5139 75.0218 99.4318 75.3268 99.2675C75.6319 99.1033 75.8723 98.8511 76.0483 98.5109C76.2243 98.1707 76.3123 97.7425 76.3123 97.2263V96.9271L74.6758 97.1911C74.0423 97.2967 73.5789 97.4551 73.2856 97.6662C72.9923 97.8774 72.8457 98.1355 72.8457 98.4405C72.8457 98.6634 72.9102 98.8569 73.0393 99.0212C73.18 99.1854 73.3619 99.3086 73.5848 99.3907C73.8077 99.4728 74.0423 99.5139 74.2886 99.5139ZM81.5399 104.511C81.4108 104.511 81.3053 104.47 81.2231 104.388C81.141 104.306 81.1 104.2 81.1 104.071V92.4576C81.1 92.3285 81.141 92.2229 81.2231 92.1408C81.3053 92.0587 81.4108 92.0177 81.5399 92.0177H83.2116C83.3406 92.0177 83.4462 92.0587 83.5283 92.1408C83.6104 92.2229 83.6515 92.3285 83.6515 92.4576V93.1263C83.933 92.7509 84.2967 92.4458 84.7425 92.2112C85.1883 91.9649 85.7455 91.8417 86.4142 91.8417C87.0242 91.8417 87.5521 91.9414 87.9979 92.1408C88.4554 92.3285 88.8367 92.6042 89.1417 92.9679C89.4584 93.3198 89.6989 93.748 89.8631 94.2524C90.0391 94.7569 90.1388 95.3258 90.1623 95.9593C90.174 96.1822 90.1799 96.3934 90.1799 96.5928C90.1799 96.7922 90.174 97.0093 90.1623 97.2439C90.1506 97.8422 90.0567 98.3935 89.8807 98.898C89.7165 99.4024 89.476 99.8365 89.1593 100.2C88.8425 100.564 88.4554 100.845 87.9979 101.045C87.5521 101.244 87.0242 101.344 86.4142 101.344C85.8159 101.344 85.2939 101.238 84.8481 101.027C84.414 100.804 84.0562 100.505 83.7747 100.13V104.071C83.7747 104.2 83.7336 104.306 83.6515 104.388C83.5694 104.47 83.4697 104.511 83.3523 104.511H81.5399ZM85.6223 99.2323C86.0681 99.2323 86.42 99.1385 86.6781 98.9508C86.9362 98.7513 87.118 98.4933 87.2236 98.1765C87.3409 97.8598 87.4113 97.5137 87.4348 97.1383C87.4583 96.7746 87.4583 96.411 87.4348 96.0473C87.4113 95.6719 87.3409 95.3258 87.2236 95.0091C87.118 94.6924 86.9362 94.4401 86.6781 94.2524C86.42 94.053 86.0681 93.9533 85.6223 93.9533C85.1883 93.9533 84.8363 94.053 84.5665 94.2524C84.2967 94.4519 84.1031 94.7041 83.9858 95.0091C83.8685 95.3141 83.7981 95.6426 83.7747 95.9945C83.7629 96.2057 83.7571 96.4227 83.7571 96.6456C83.7571 96.8685 83.7629 97.0914 83.7747 97.3143C83.7864 97.6428 83.8568 97.9536 83.9858 98.2469C84.1266 98.5285 84.326 98.7631 84.5841 98.9508C84.8539 99.1385 85.2 99.2323 85.6223 99.2323ZM92.4511 101.168C92.3455 101.168 92.2517 101.127 92.1696 101.045C92.0874 100.963 92.0464 100.863 92.0464 100.746V92.4576C92.0464 92.3285 92.0874 92.2229 92.1696 92.1408C92.2517 92.0587 92.3514 92.0177 92.4687 92.0177H94.2284C94.3574 92.0177 94.463 92.0587 94.5451 92.1408C94.6272 92.2229 94.6683 92.3285 94.6683 92.4576V99.1443L93.9644 98.7396L98.5572 92.2992C98.6158 92.2171 98.6804 92.1526 98.7507 92.1056C98.8329 92.047 98.9326 92.0177 99.0499 92.0177H100.634C100.751 92.0177 100.851 92.0587 100.933 92.1408C101.015 92.2229 101.056 92.3168 101.056 92.4224V100.728C101.056 100.857 101.015 100.963 100.933 101.045C100.851 101.127 100.745 101.168 100.616 101.168H98.8563C98.739 101.168 98.6393 101.127 98.5572 101.045C98.4751 100.963 98.434 100.857 98.434 100.728V94.3052L99.1555 94.4284L94.5275 100.886C94.4806 100.969 94.4161 101.039 94.334 101.098C94.2518 101.145 94.158 101.168 94.0524 101.168H92.4511ZM103.553 101.168C103.435 101.168 103.336 101.127 103.253 101.045C103.171 100.963 103.13 100.857 103.13 100.728V92.4576C103.13 92.3285 103.171 92.2229 103.253 92.1408C103.336 92.0587 103.435 92.0177 103.553 92.0177H105.312C105.441 92.0177 105.547 92.0587 105.629 92.1408C105.711 92.2229 105.752 92.3285 105.752 92.4576V95.4842H109.324V92.4576C109.324 92.3285 109.365 92.2229 109.448 92.1408C109.53 92.0587 109.635 92.0177 109.764 92.0177H111.524C111.641 92.0177 111.741 92.0587 111.823 92.1408C111.905 92.2229 111.946 92.3285 111.946 92.4576V100.728C111.946 100.857 111.905 100.963 111.823 101.045C111.741 101.127 111.641 101.168 111.524 101.168H109.764C109.635 101.168 109.53 101.127 109.448 101.045C109.365 100.963 109.324 100.857 109.324 100.728V97.5606H105.752V100.728C105.752 100.857 105.711 100.963 105.629 101.045C105.547 101.127 105.441 101.168 105.312 101.168H103.553ZM116.906 101.344C116.285 101.344 115.727 101.227 115.235 100.992C114.742 100.746 114.349 100.417 114.056 100.007C113.763 99.596 113.616 99.1385 113.616 98.634C113.616 97.8011 113.95 97.1442 114.619 96.6632C115.299 96.1822 116.191 95.8537 117.294 95.6778L119.599 95.3434V95.0267C119.599 94.5692 119.493 94.2172 119.282 93.9709C119.071 93.7245 118.701 93.6014 118.173 93.6014C117.786 93.6014 117.475 93.6776 117.241 93.8301C117.006 93.9826 116.824 94.1821 116.695 94.4284C116.601 94.5809 116.467 94.6572 116.291 94.6572H114.619C114.49 94.6572 114.39 94.622 114.32 94.5516C114.249 94.4695 114.22 94.3756 114.232 94.27C114.232 94.0706 114.308 93.836 114.461 93.5662C114.613 93.2964 114.848 93.0324 115.164 92.7743C115.481 92.5045 115.886 92.2816 116.379 92.1056C116.871 91.9297 117.475 91.8417 118.191 91.8417C118.93 91.8417 119.564 91.9297 120.091 92.1056C120.619 92.2816 121.042 92.528 121.358 92.8447C121.675 93.1614 121.91 93.531 122.062 93.9533C122.215 94.3639 122.291 94.8097 122.291 95.2907V100.728C122.291 100.857 122.25 100.963 122.168 101.045C122.086 101.127 121.98 101.168 121.851 101.168H120.127C120.009 101.168 119.91 101.127 119.828 101.045C119.745 100.963 119.704 100.857 119.704 100.728V100.077C119.552 100.3 119.347 100.511 119.088 100.71C118.83 100.898 118.52 101.051 118.156 101.168C117.804 101.285 117.387 101.344 116.906 101.344ZM117.61 99.5139C117.997 99.5139 118.344 99.4318 118.649 99.2675C118.954 99.1033 119.194 98.8511 119.37 98.5109C119.546 98.1707 119.634 97.7425 119.634 97.2263V96.9271L117.997 97.1911C117.364 97.2967 116.901 97.4551 116.607 97.6662C116.314 97.8774 116.167 98.1355 116.167 98.4405C116.167 98.6634 116.232 98.8569 116.361 99.0212C116.502 99.1854 116.684 99.3086 116.906 99.3907C117.129 99.4728 117.364 99.5139 117.61 99.5139ZM135.538 101.168C135.42 101.168 135.321 101.127 135.238 101.045C135.156 100.963 135.115 100.857 135.115 100.728V96.7688C134.928 96.933 134.687 97.0738 134.394 97.1911C134.101 97.2967 133.778 97.3788 133.426 97.4375C133.086 97.4844 132.746 97.5078 132.405 97.5078C130.927 97.5078 129.83 97.15 129.115 96.4344C128.411 95.7188 128.059 94.6396 128.059 93.1966V89.2902C128.059 89.1611 128.1 89.0555 128.182 88.9734C128.264 88.8913 128.364 88.8502 128.481 88.8502H130.417C130.546 88.8502 130.652 88.8913 130.734 88.9734C130.816 89.0555 130.857 89.1611 130.857 89.2902V93.0735C130.857 93.7069 131.015 94.1762 131.332 94.4812C131.649 94.7862 132.188 94.9387 132.951 94.9387C133.174 94.9387 133.408 94.9211 133.655 94.8859C133.901 94.839 134.136 94.7686 134.359 94.6748C134.582 94.5809 134.763 94.4519 134.904 94.2876C135.045 94.1234 135.115 93.9181 135.115 93.6717V89.2902C135.115 89.1611 135.156 89.0555 135.238 88.9734C135.321 88.8913 135.42 88.8502 135.538 88.8502H137.473C137.602 88.8502 137.708 88.8913 137.79 88.9734C137.872 89.0555 137.913 89.1611 137.913 89.2902V100.728C137.913 100.857 137.872 100.963 137.79 101.045C137.708 101.127 137.602 101.168 137.473 101.168H135.538ZM140.791 101.168C140.685 101.168 140.591 101.127 140.509 101.045C140.427 100.963 140.386 100.863 140.386 100.746V92.4576C140.386 92.3285 140.427 92.2229 140.509 92.1408C140.591 92.0587 140.691 92.0177 140.808 92.0177H142.568C142.697 92.0177 142.803 92.0587 142.885 92.1408C142.967 92.2229 143.008 92.3285 143.008 92.4576V99.1443L142.304 98.7396L146.897 92.2992C146.955 92.2171 147.02 92.1526 147.09 92.1056C147.172 92.047 147.272 92.0177 147.389 92.0177H148.973C149.09 92.0177 149.19 92.0587 149.272 92.1408C149.354 92.2229 149.395 92.3168 149.395 92.4224V100.728C149.395 100.857 149.354 100.963 149.272 101.045C149.19 101.127 149.085 101.168 148.956 101.168H147.196C147.079 101.168 146.979 101.127 146.897 101.045C146.815 100.963 146.774 100.857 146.774 100.728V94.3052L147.495 94.4284L142.867 100.886C142.82 100.969 142.756 101.039 142.673 101.098C142.591 101.145 142.498 101.168 142.392 101.168H140.791ZM151.892 101.168C151.775 101.168 151.675 101.127 151.593 101.045C151.511 100.963 151.47 100.857 151.47 100.728V92.4576C151.47 92.3285 151.511 92.2229 151.593 92.1408C151.675 92.0587 151.775 92.0177 151.892 92.0177H153.617C153.746 92.0177 153.851 92.0587 153.933 92.1408C154.015 92.2229 154.057 92.3285 154.057 92.4576V95.4842H155.165L157.206 92.2992C157.242 92.2288 157.294 92.1643 157.365 92.1056C157.447 92.047 157.552 92.0177 157.681 92.0177H159.6C159.705 92.0177 159.793 92.0528 159.863 92.1232C159.946 92.1819 159.987 92.2581 159.987 92.352C159.987 92.3872 159.975 92.4282 159.951 92.4752C159.94 92.5221 159.922 92.5632 159.899 92.5983L157.418 96.4344L160.286 100.605C160.333 100.675 160.356 100.752 160.356 100.834C160.356 100.927 160.321 101.01 160.251 101.08C160.18 101.139 160.092 101.168 159.987 101.168H157.857C157.74 101.168 157.64 101.145 157.558 101.098C157.488 101.039 157.423 100.969 157.365 100.886L155.148 97.5782H154.057V100.728C154.057 100.857 154.015 100.963 153.933 101.045C153.851 101.127 153.746 101.168 153.617 101.168H151.892ZM162.219 101.168C162.114 101.168 162.02 101.127 161.938 101.045C161.856 100.963 161.815 100.863 161.815 100.746V92.4576C161.815 92.3285 161.856 92.2229 161.938 92.1408C162.02 92.0587 162.12 92.0177 162.237 92.0177H163.997C164.126 92.0177 164.231 92.0587 164.314 92.1408C164.396 92.2229 164.437 92.3285 164.437 92.4576V99.1443L163.733 98.7396L168.326 92.2992C168.384 92.2171 168.449 92.1526 168.519 92.1056C168.601 92.047 168.701 92.0177 168.818 92.0177H170.402C170.519 92.0177 170.619 92.0587 170.701 92.1408C170.783 92.2229 170.824 92.3168 170.824 92.4224V100.728C170.824 100.857 170.783 100.963 170.701 101.045C170.619 101.127 170.513 101.168 170.384 101.168H168.625C168.507 101.168 168.408 101.127 168.326 101.045C168.243 100.963 168.202 100.857 168.202 100.728V94.3052L168.924 94.4284L164.296 100.886C164.249 100.969 164.184 101.039 164.102 101.098C164.02 101.145 163.926 101.168 163.821 101.168H162.219ZM173.321 101.168C173.204 101.168 173.104 101.127 173.022 101.045C172.94 100.963 172.899 100.857 172.899 100.728V92.4576C172.899 92.3285 172.94 92.2229 173.022 92.1408C173.104 92.0587 173.204 92.0177 173.321 92.0177H175.081C175.21 92.0177 175.315 92.0587 175.397 92.1408C175.48 92.2229 175.521 92.3285 175.521 92.4576V95.4842H179.093V92.4576C179.093 92.3285 179.134 92.2229 179.216 92.1408C179.298 92.0587 179.404 92.0177 179.533 92.0177H181.292C181.41 92.0177 181.509 92.0587 181.591 92.1408C181.674 92.2229 181.715 92.3285 181.715 92.4576V100.728C181.715 100.857 181.674 100.963 181.591 101.045C181.509 101.127 181.41 101.168 181.292 101.168H179.533C179.404 101.168 179.298 101.127 179.216 101.045C179.134 100.963 179.093 100.857 179.093 100.728V97.5606H175.521V100.728C175.521 100.857 175.48 100.963 175.397 101.045C175.315 101.127 175.21 101.168 175.081 101.168H173.321ZM186.675 101.344C186.053 101.344 185.496 101.227 185.003 100.992C184.51 100.746 184.117 100.417 183.824 100.007C183.531 99.596 183.384 99.1385 183.384 98.634C183.384 97.8011 183.719 97.1442 184.387 96.6632C185.068 96.1822 185.959 95.8537 187.062 95.6778L189.367 95.3434V95.0267C189.367 94.5692 189.262 94.2172 189.05 93.9709C188.839 93.7245 188.47 93.6014 187.942 93.6014C187.555 93.6014 187.244 93.6776 187.009 93.8301C186.775 93.9826 186.593 94.1821 186.464 94.4284C186.37 94.5809 186.235 94.6572 186.059 94.6572H184.387C184.258 94.6572 184.159 94.622 184.088 94.5516C184.018 94.4695 183.988 94.3756 184 94.27C184 94.0706 184.076 93.836 184.229 93.5662C184.381 93.2964 184.616 93.0324 184.933 92.7743C185.25 92.5045 185.654 92.2816 186.147 92.1056C186.64 91.9297 187.244 91.8417 187.959 91.8417C188.698 91.8417 189.332 91.9297 189.86 92.1056C190.388 92.2816 190.81 92.528 191.127 92.8447C191.444 93.1614 191.678 93.531 191.831 93.9533C191.983 94.3639 192.059 94.8097 192.059 95.2907V100.728C192.059 100.857 192.018 100.963 191.936 101.045C191.854 101.127 191.749 101.168 191.62 101.168H189.895C189.778 101.168 189.678 101.127 189.596 101.045C189.514 100.963 189.473 100.857 189.473 100.728V100.077C189.32 100.3 189.115 100.511 188.857 100.71C188.599 100.898 188.288 101.051 187.924 101.168C187.572 101.285 187.156 101.344 186.675 101.344ZM187.379 99.5139C187.766 99.5139 188.112 99.4318 188.417 99.2675C188.722 99.1033 188.962 98.8511 189.138 98.5109C189.314 98.1707 189.402 97.7425 189.402 97.2263V96.9271L187.766 97.1911C187.132 97.2967 186.669 97.4551 186.376 97.6662C186.082 97.8774 185.936 98.1355 185.936 98.4405C185.936 98.6634 186 98.8569 186.129 99.0212C186.27 99.1854 186.452 99.3086 186.675 99.3907C186.898 99.4728 187.132 99.5139 187.379 99.5139Z" fill="#6767E0"/>
<path d="M82.5515 117.531C81.7574 117.531 81.0777 117.252 80.5122 116.692C79.9527 116.127 79.673 115.447 79.673 114.653C79.673 113.859 79.9527 113.182 80.5122 112.622C81.0777 112.057 81.7574 111.774 82.5515 111.774C83.0869 111.774 83.5802 111.91 84.0314 112.18C84.4825 112.451 84.8314 112.815 85.0781 113.272H84.3201C83.8689 112.701 83.2794 112.415 82.5515 112.415C81.9319 112.415 81.4025 112.634 80.9634 113.074C80.5302 113.507 80.3137 114.033 80.3137 114.653C80.3137 115.272 80.5302 115.802 80.9634 116.241C81.4025 116.674 81.9319 116.891 82.5515 116.891C82.9546 116.891 83.3245 116.791 83.6614 116.593C84.0043 116.394 84.275 116.127 84.4735 115.79H85.1954C84.9728 116.307 84.6209 116.728 84.1396 117.053C83.6644 117.372 83.135 117.531 82.5515 117.531ZM88.623 117.531C87.8289 117.531 87.1492 117.252 86.5837 116.692C86.0242 116.127 85.7445 115.447 85.7445 114.653C85.7445 113.859 86.0242 113.182 86.5837 112.622C87.1492 112.057 87.8289 111.774 88.623 111.774C89.4171 111.774 90.0938 112.057 90.6533 112.622C91.2188 113.182 91.5015 113.859 91.5015 114.653C91.5015 114.719 91.4985 114.77 91.4925 114.806H86.8995V114.165H90.8067C90.6984 113.66 90.4397 113.242 90.0307 112.911C89.6216 112.58 89.1524 112.415 88.623 112.415C88.0034 112.415 87.474 112.638 87.0349 113.083C86.6017 113.522 86.3852 114.045 86.3852 114.653C86.3852 115.254 86.6047 115.778 87.0439 116.223C87.483 116.668 88.0094 116.891 88.623 116.891C88.9839 116.891 89.3238 116.809 89.6426 116.647C89.9615 116.479 90.2262 116.25 90.4367 115.961H91.1857C90.945 116.436 90.5931 116.818 90.1299 117.107C89.6727 117.39 89.1704 117.531 88.623 117.531ZM92.1607 111.774H92.8014L94.7775 116.214L96.7537 111.774H97.3943V117.531H96.7537V113.344L94.8948 117.531H94.6602L92.8014 113.344V117.531H92.1607V111.774ZM100.933 117.531C100.139 117.531 99.4595 117.252 98.8941 116.692C98.3346 116.127 98.0549 115.447 98.0549 114.653C98.0549 113.859 98.3346 113.182 98.8941 112.622C99.4595 112.057 100.139 111.774 100.933 111.774C101.727 111.774 102.404 112.057 102.964 112.622C103.529 113.182 103.812 113.859 103.812 114.653C103.812 114.719 103.809 114.77 103.803 114.806H99.2099V114.165H103.117C103.009 113.66 102.75 113.242 102.341 112.911C101.932 112.58 101.463 112.415 100.933 112.415C100.314 112.415 99.7844 112.638 99.3452 113.083C98.9121 113.522 98.6956 114.045 98.6956 114.653C98.6956 115.254 98.9151 115.778 99.3543 116.223C99.7934 116.668 100.32 116.891 100.933 116.891C101.294 116.891 101.634 116.809 101.953 116.647C102.272 116.479 102.537 116.25 102.747 115.961H103.496C103.255 116.436 102.904 116.818 102.44 117.107C101.983 117.39 101.481 117.531 100.933 117.531ZM106.577 117.531C105.957 117.531 105.428 117.312 104.989 116.873C104.55 116.433 104.33 115.904 104.33 115.284V111.774H104.971V115.284C104.971 115.724 105.127 116.103 105.44 116.421C105.759 116.734 106.138 116.891 106.577 116.891C107.022 116.891 107.401 116.734 107.714 116.421C108.027 116.103 108.183 115.724 108.183 115.284V111.774H108.815V115.284V117.531H108.183V116.845C107.738 117.303 107.203 117.531 106.577 117.531ZM107.678 110.177V110.195C107.678 110.496 107.57 110.755 107.353 110.971C107.136 111.188 106.878 111.296 106.577 111.296C106.276 111.296 106.017 111.188 105.801 110.971C105.584 110.755 105.476 110.496 105.476 110.195V110.177H105.954V110.195C105.954 110.37 106.014 110.517 106.135 110.637C106.261 110.758 106.409 110.818 106.577 110.818C106.745 110.818 106.89 110.758 107.01 110.637C107.136 110.517 107.2 110.37 107.2 110.195V110.177H107.678ZM110.152 111.774V114.075H113.094V111.774H113.735V117.531H113.094V114.716H110.152V117.531H109.512V111.774H110.152ZM114.428 111.774H115.06V116.891H116.405C116.754 116.891 117.054 116.764 117.307 116.512C117.56 116.259 117.686 115.958 117.686 115.609C117.686 115.254 117.56 114.954 117.307 114.707C117.06 114.454 116.76 114.328 116.405 114.328H115.511V113.687H116.405C116.934 113.687 117.385 113.877 117.758 114.256C118.137 114.629 118.327 115.08 118.327 115.609C118.327 116.133 118.137 116.584 117.758 116.963C117.385 117.342 116.934 117.531 116.405 117.531H114.428V111.774ZM118.769 117.531V111.774H119.409V117.531H118.769ZM122.368 117.531C121.748 117.531 121.219 117.312 120.78 116.873C120.341 116.433 120.121 115.904 120.121 115.284V111.774H120.762V115.284C120.762 115.724 120.918 116.103 121.231 116.421C121.55 116.734 121.929 116.891 122.368 116.891C122.813 116.891 123.192 116.734 123.505 116.421C123.818 116.103 123.974 115.724 123.974 115.284V111.774H124.606V115.284V117.531H123.974V116.845C123.529 117.303 122.994 117.531 122.368 117.531ZM123.469 110.177V110.195C123.469 110.496 123.361 110.755 123.144 110.971C122.928 111.188 122.669 111.296 122.368 111.296C122.067 111.296 121.809 111.188 121.592 110.971C121.376 110.755 121.267 110.496 121.267 110.195V110.177H121.745V110.195C121.745 110.37 121.806 110.517 121.926 110.637C122.052 110.758 122.2 110.818 122.368 110.818C122.537 110.818 122.681 110.758 122.801 110.637C122.928 110.517 122.991 110.37 122.991 110.195V110.177H123.469ZM129.072 112.415V117.531H128.431V111.774H132.654V117.531H132.013V112.415H129.072ZM136.181 117.531C135.387 117.531 134.708 117.252 134.142 116.692C133.583 116.127 133.303 115.447 133.303 114.653C133.303 113.859 133.583 113.182 134.142 112.622C134.708 112.057 135.387 111.774 136.181 111.774C136.717 111.774 137.21 111.91 137.661 112.18C138.112 112.451 138.461 112.815 138.708 113.272H137.95C137.499 112.701 136.909 112.415 136.181 112.415C135.562 112.415 135.032 112.634 134.593 113.074C134.16 113.507 133.944 114.033 133.944 114.653C133.944 115.272 134.16 115.802 134.593 116.241C135.032 116.674 135.562 116.891 136.181 116.891C136.585 116.891 136.954 116.791 137.291 116.593C137.634 116.394 137.905 116.127 138.103 115.79H138.825C138.603 116.307 138.251 116.728 137.77 117.053C137.294 117.372 136.765 117.531 136.181 117.531ZM141.657 117.531C141.038 117.531 140.508 117.312 140.069 116.873C139.63 116.433 139.411 115.904 139.411 115.284V111.774H140.051V115.284C140.051 115.724 140.208 116.103 140.52 116.421C140.839 116.734 141.218 116.891 141.657 116.891C142.097 116.891 142.473 116.734 142.785 116.421C143.104 116.103 143.264 115.724 143.264 115.284V111.774H143.895V117.531H143.264V116.845C142.806 117.303 142.271 117.531 141.657 117.531ZM148.545 117.531H147.832L146.523 114.932L145.215 117.531H144.502L146.163 114.229L144.926 111.774H145.639L146.523 113.516L147.399 111.774H148.121L146.884 114.229L148.545 117.531ZM153.579 116.692C153.02 117.252 152.343 117.531 151.549 117.531C150.755 117.531 150.075 117.252 149.51 116.692C148.95 116.127 148.671 115.447 148.671 114.653C148.671 113.859 148.95 113.182 149.51 112.622C150.075 112.057 150.755 111.774 151.549 111.774C152.343 111.774 153.02 112.057 153.579 112.622C154.145 113.182 154.428 113.859 154.428 114.653C154.428 115.447 154.145 116.127 153.579 116.692ZM149.961 116.241C150.4 116.674 150.93 116.891 151.549 116.891C152.169 116.891 152.695 116.674 153.128 116.241C153.567 115.802 153.787 115.272 153.787 114.653C153.787 114.033 153.567 113.507 153.128 113.074C152.695 112.634 152.169 112.415 151.549 112.415C150.93 112.415 150.4 112.634 149.961 113.074C149.528 113.507 149.311 114.033 149.311 114.653C149.311 115.272 149.528 115.802 149.961 116.241ZM159.168 117.531H158.474L156.687 113.389L154.9 117.531H154.205L156.687 111.774L159.168 117.531ZM163.986 116.692C163.427 117.252 162.75 117.531 161.956 117.531C161.162 117.531 160.482 117.252 159.917 116.692C159.357 116.127 159.078 115.447 159.078 114.653C159.078 113.859 159.357 113.182 159.917 112.622C160.482 112.057 161.162 111.774 161.956 111.774C162.75 111.774 163.427 112.057 163.986 112.622C164.552 113.182 164.835 113.859 164.835 114.653C164.835 115.447 164.552 116.127 163.986 116.692ZM160.368 116.241C160.807 116.674 161.337 116.891 161.956 116.891C162.576 116.891 163.102 116.674 163.535 116.241C163.974 115.802 164.194 115.272 164.194 114.653C164.194 114.033 163.974 113.507 163.535 113.074C163.102 112.634 162.576 112.415 161.956 112.415C161.337 112.415 160.807 112.634 160.368 113.074C159.935 113.507 159.718 114.033 159.718 114.653C159.718 115.272 159.935 115.802 160.368 116.241ZM167.14 117.531C166.653 117.531 166.238 117.36 165.895 117.017C165.552 116.668 165.381 116.253 165.381 115.772C165.381 115.411 165.465 115.107 165.633 114.86C165.802 114.614 166.006 114.43 166.247 114.31C166.494 114.184 166.737 114.072 166.978 113.976C167.218 113.874 167.423 113.756 167.591 113.624C167.76 113.486 167.844 113.317 167.844 113.119C167.844 112.926 167.775 112.761 167.636 112.622C167.498 112.484 167.333 112.415 167.14 112.415C166.948 112.415 166.782 112.484 166.644 112.622C166.506 112.761 166.436 112.926 166.436 113.119H165.796C165.796 112.746 165.925 112.43 166.184 112.171C166.448 111.907 166.767 111.774 167.14 111.774C167.513 111.774 167.829 111.907 168.088 112.171C168.352 112.43 168.485 112.746 168.485 113.119C168.485 113.432 168.4 113.69 168.232 113.895C168.064 114.093 167.856 114.244 167.609 114.346C167.369 114.448 167.128 114.55 166.888 114.653C166.647 114.749 166.442 114.89 166.274 115.077C166.106 115.257 166.021 115.489 166.021 115.772C166.021 116.078 166.13 116.343 166.346 116.566C166.569 116.782 166.833 116.891 167.14 116.891C167.447 116.891 167.709 116.785 167.925 116.575C168.142 116.358 168.253 116.097 168.259 115.79H168.9C168.894 116.271 168.719 116.683 168.376 117.026C168.034 117.363 167.621 117.531 167.14 117.531Z" fill="#6767E0"/>
<g clip-path="url(#clip1_203_900)">
<path d="M140.959 30.6865C139.871 30.6865 138.873 31.0577 138.074 31.6751C137.617 31.4021 137.084 31.2423 136.512 31.2423C134.824 31.2423 133.455 32.611 133.455 34.2994C133.455 34.3999 133.461 34.4991 133.47 34.5971C132.52 34.7258 131.788 35.5377 131.788 36.5227C131.788 36.8439 131.867 37.1461 132.005 37.413C131.704 37.6679 131.51 38.0434 131.51 38.4681C131.51 39.2356 132.132 39.8577 132.899 39.8577C133.667 39.8577 134.289 39.2356 134.289 38.4681C134.289 38.4409 134.282 38.4154 134.281 38.3886C134.87 38.2158 135.342 37.772 135.554 37.2012C135.856 37.3007 136.177 37.3565 136.512 37.3565C136.56 37.3565 136.606 37.3515 136.653 37.3494C137.394 38.991 139.041 40.1357 140.959 40.1357C143.568 40.1357 145.683 38.0204 145.683 35.4111C145.683 32.8018 143.568 30.6865 140.959 30.6865Z" fill="#E6E6FA" fill-opacity="0.3"/>
<path d="M142.904 38.19C141.089 38.19 139.91 37.0358 139.377 35.4177C139.323 35.2527 139.174 35.137 139.001 35.1358C138.866 35.1348 138.736 35.133 138.736 35.133C136.76 35.133 135.156 33.5459 135.126 31.5771C134.135 32.0829 133.455 33.1106 133.455 34.2992C133.455 34.3997 133.461 34.4989 133.47 34.5969C132.52 34.7256 131.788 35.5375 131.788 36.5225C131.788 36.8436 131.867 37.1459 132.005 37.4128C131.639 37.7229 131.43 38.2116 131.538 38.7502C131.645 39.2828 132.071 39.7167 132.603 39.8267C133.5 40.0123 134.289 39.3323 134.289 38.4679C134.289 38.4407 134.282 38.4152 134.281 38.3883C134.87 38.2156 135.342 37.7718 135.554 37.201C135.856 37.3005 136.177 37.3563 136.512 37.3563C136.56 37.3563 136.606 37.3513 136.653 37.3492C137.394 38.9908 139.041 40.1354 140.959 40.1354C142.815 40.1354 144.416 39.0629 145.189 37.5063C144.532 37.9374 143.748 38.19 142.904 38.19Z" fill="#6767E0" fill-opacity="0.3"/>
</g>
</g>
<defs>
<filter id="filter0_d_203_900" x="0.562012" y="0" width="248" height="158" filterUnits="userSpaceOnUse" color-interpolation-filters="sRGB">
<feFlood flood-opacity="0" result="BackgroundImageFix"/>
<feColorMatrix in="SourceAlpha" type="matrix" values="0 0 0 0 0 0 0 0 0 0 0 0 0 0 0 0 0 0 127 0" result="hardAlpha"/>
<feOffset dy="4"/>
<feGaussianBlur stdDeviation="9"/>
<feComposite in2="hardAlpha" operator="out"/>
<feColorMatrix type="matrix" values="0 0 0 0 0 0 0 0 0 0 0 0 0 0 0 0 0 0 0.25 0"/>
<feBlend mode="normal" in2="BackgroundImageFix" result="effect1_dropShadow_203_900"/>
<feBlend mode="normal" in="SourceGraphic" in2="effect1_dropShadow_203_900" result="shape"/>
</filter>
<clipPath id="clip0_203_900">
<rect width="22.2699" height="23.8606" fill="white" transform="translate(122.267 54.3535)"/>
</clipPath>
<clipPath id="clip1_203_900">
<rect width="15.2546" height="9.70745" fill="white" transform="translate(131.523 30.4268)"/>
</clipPath>
</defs>
</svg>
