<svg width="156" height="144" viewBox="0 0 156 144" fill="none" xmlns="http://www.w3.org/2000/svg">
<g filter="url(#filter0_d_203_879)">
<path d="M30.85 18.7045C25.72 22.6423 24.5413 27.2241 23.0429 33.2549" stroke="#9E7CBF" stroke-width="2"/>
<path d="M23.041 33.2549C19.3429 48.0149 15.6675 62.7799 12.0146 77.5499C10.8087 82.4281 10.7532 87.546 14.5083 91.3961C15.2563 92.1625 16.6514 93.1098 18.6934 94.2382C20.8946 95.4549 23.0924 96.6718 25.287 97.8889" stroke="#9E7CBF" stroke-width="2"/>
<path d="M25.2883 97.8894C26.9016 98.757 28.2936 99.2813 29.4641 99.4622C31.3183 99.7479 35.6736 100.265 42.53 101.014" stroke="#E6E6FA" stroke-width="2"/>
<path d="M42.5308 101.013C44.39 105.033 46.2032 109.046 47.9703 113.052C48.3865 113.993 49.1716 114.784 50.3258 115.424C52.8958 116.848 55.4926 118.27 58.1162 119.689" stroke="#9E7CBF" stroke-width="2"/>
<path d="M58.1156 119.692C61.0218 121.701 62.8444 120.639 65.2519 118.417C69.6548 114.357 74.0543 110.295 78.4502 106.229C78.8791 105.834 79.255 105.321 79.8749 105.396C85.5758 106.07 91.2794 106.75 96.9857 107.437C99.3897 107.726 101.172 107.788 102.333 107.623C108.657 106.725 113.79 101.253 115.328 95.2067C117.012 88.588 121.023 72.4936 127.361 46.9237C128.007 44.3192 128.338 42.4096 128.354 41.195C128.421 36.0475 125.833 31.5828 120.905 29.5506" stroke="#E6E6FA" stroke-width="2"/>
<path d="M120.904 29.5504C118.383 28.0978 115.864 26.7087 113.346 25.3832C111.784 24.5597 110.586 24.2749 108.903 24.0752C86.4353 21.4159 63.9634 18.7729 41.4871 16.1461C37.2289 15.6483 34.1892 16.1595 30.8491 18.7059" stroke="#9E7CBF" stroke-width="2"/>
<path d="M120.904 29.5502C120.465 29.5718 120.001 29.5138 119.511 29.376C118.921 29.2116 118.47 29.1134 118.156 29.0816C115.066 28.7695 109.672 28.1621 101.973 27.2594C84.5289 25.2105 67.0858 23.1542 49.6436 21.0905C44.6686 20.5019 39.6319 23.348 36.7694 27.2436C35.3309 29.2003 34.2462 31.5141 33.5153 34.185C32.2307 38.8735 31.193 42.8477 30.4022 46.1077C27.4545 58.2543 24.378 70.3696 21.3967 82.5071C20.169 87.5036 20.0406 94.4533 25.2405 97.4563C25.3157 97.5004 25.3569 97.5658 25.3642 97.6527C25.3691 97.7236 25.3435 97.8028 25.2875 97.8901" stroke="#C03845" stroke-width="2"/>
<path d="M22.8702 33.1597L23.3525 33.1746C23.4715 33.1847 23.5419 33.136 23.5637 33.0286C24.1619 30.1538 24.7991 26.7275 26.4089 24.2708C27.5377 22.5477 29.0472 20.6751 30.7725 19.4254C31.0958 19.1886 31.2069 18.8786 30.8022 18.633" stroke="#9E7CBF" stroke-width="2"/>
<path d="M58.1154 119.693C55.0586 114.042 52.6281 107.856 49.9548 102.004C49.9301 101.95 49.892 101.904 49.8441 101.869C49.7961 101.835 49.7401 101.813 49.6812 101.806L42.5299 101.016" stroke="#E6E6FA" stroke-width="2"/>
<path d="M95.7652 73.5829C104.214 62.9495 99.1671 49.8101 87.4069 44.8599C81.4118 42.3349 75.2284 41.6456 68.8568 42.7921C60.2317 44.3469 51.4372 49.7386 48.2668 58.2077C44.8719 67.2827 49.7985 76.4358 58.0305 80.6007C65.567 84.4126 72.97 84.7016 81.198 83.0568C81.2528 83.046 81.3094 83.0476 81.3638 83.0617C81.4183 83.0757 81.4691 83.1017 81.5126 83.1378L88.424 89.0874C88.511 89.1608 88.5534 89.1406 88.5513 89.0268L88.4416 80.1751C88.441 80.0879 88.4773 80.0214 88.5505 79.9757C91.2787 78.3319 93.6836 76.201 95.7652 73.5829Z" stroke="#F3A1A8" stroke-width="2"/>
<path d="M58.1136 119.702C55.49 118.282 52.8933 116.86 50.3234 115.435C49.1693 114.795 48.3842 114.004 47.9681 113.063C46.2014 109.055 44.3886 105.041 42.5298 101.019L49.6812 101.808C49.7401 101.815 49.7961 101.837 49.844 101.871C49.892 101.906 49.9301 101.952 49.9548 102.006C52.6274 107.86 55.0573 114.048 58.1136 119.702Z" fill="#9E7CBF"/>
<path d="M120.904 29.551C120.465 29.5726 120.001 29.5146 119.511 29.3768C118.922 29.2124 118.47 29.1142 118.156 29.0824C115.066 28.7703 109.672 28.1629 101.973 27.2602C84.5291 25.2113 67.086 23.155 49.6439 21.0913C44.6688 20.5027 39.6322 23.3488 36.7697 27.2444C35.3311 29.2011 34.2464 31.5149 33.5155 34.1858C32.2309 38.8743 31.1933 42.8485 30.4025 46.1085C27.4547 58.2551 24.3782 70.3704 21.397 82.5079C20.1692 87.5044 20.0408 94.4541 25.2407 97.4571C25.316 97.5012 25.3572 97.5666 25.3644 97.6535C25.3693 97.7244 25.3438 97.8036 25.2877 97.8909C23.0932 96.6738 20.8953 95.4568 18.6941 94.2401C16.6521 93.1118 15.2571 92.1644 14.509 91.398C10.754 87.548 10.8095 82.4301 12.0154 77.5518C15.6682 62.7819 19.3437 48.0169 23.0418 33.2569L23.6339 33.3012C23.745 33.3092 23.8116 33.2596 23.8338 33.1524C24.4429 30.2823 25.0979 26.8629 26.645 24.3911C27.73 22.6574 29.1732 20.7683 30.8073 19.4953C31.1136 19.2541 31.2228 18.9438 30.8489 18.7065C34.189 16.16 37.2287 15.6488 41.4869 16.1466C63.9632 18.7734 86.4351 21.4164 108.903 24.0757C110.586 24.2754 111.783 24.5602 113.345 25.3837C115.864 26.7092 118.383 28.0983 120.904 29.551Z" fill="#9E7CBF"/>
<path d="M120.905 29.5511C125.833 31.5833 128.421 36.048 128.354 41.1955C128.337 42.4101 128.006 44.3197 127.361 46.9242C121.023 72.4941 117.012 88.5885 115.328 95.2072C113.789 101.253 108.657 106.725 102.333 107.623C101.172 107.789 99.3895 107.727 96.9855 107.438C91.2792 106.751 85.5756 106.071 79.8747 105.396C79.2548 105.322 78.8789 105.835 78.45 106.229C74.0541 110.295 69.6546 114.358 65.2517 118.417C62.8442 120.639 61.0216 121.702 58.1154 119.692C55.0586 114.041 52.6281 107.855 49.9548 102.003C49.9301 101.949 49.892 101.903 49.8441 101.868C49.7962 101.834 49.7401 101.812 49.6812 101.805L42.53 101.016C35.6736 100.267 31.3183 99.7495 29.4641 99.4638C28.2936 99.283 26.9016 98.7587 25.2882 97.8911C25.3443 97.8038 25.3698 97.7246 25.3649 97.6537C25.3577 97.5668 25.3164 97.5014 25.2412 97.4573C20.0413 94.4542 20.1697 87.5046 21.3975 82.5081C24.3787 70.3706 27.4552 58.2552 30.4029 46.1087C31.1938 42.8487 32.2314 38.8745 33.516 34.186C34.2469 31.5151 35.3316 29.2013 36.7702 27.2445C39.6327 23.349 44.6693 20.5028 49.6443 21.0915C67.0865 23.1552 84.5296 25.2115 101.974 27.2604C109.672 28.1631 115.067 28.7705 118.157 29.0826C118.471 29.1144 118.922 29.2125 119.511 29.377C120.001 29.5148 120.466 29.5728 120.905 29.5511ZM95.7649 73.5842C104.214 62.9509 99.1667 49.8115 87.4066 44.8613C81.4114 42.3363 75.228 41.647 68.8564 42.7935C60.2313 44.3483 51.4369 49.7399 48.2664 58.209C44.8715 67.2841 49.7981 76.4372 58.0302 80.6021C65.5666 84.414 72.9696 84.703 81.1976 83.0581C81.2524 83.0474 81.3091 83.049 81.3635 83.063C81.4179 83.0771 81.4687 83.1031 81.5122 83.1392L88.4237 89.0888C88.5107 89.1622 88.5531 89.142 88.5509 89.0282L88.4412 80.1765C88.4407 80.0893 88.477 80.0228 88.5502 79.9771C91.2784 78.3333 93.6833 76.2024 95.7649 73.5842Z" fill="#E6E6FA"/>
<path d="M87.4069 44.8609C99.1671 49.8111 104.214 62.9505 95.7652 73.5838C93.6836 76.2019 91.2787 78.3329 88.5505 79.9767C88.4773 80.0224 88.441 80.0889 88.4416 80.1761L88.5513 89.0278C88.5534 89.1416 88.511 89.1618 88.424 89.0884L81.5126 83.1388C81.4691 83.1027 81.4183 83.0767 81.3638 83.0626C81.3094 83.0486 81.2528 83.047 81.198 83.0577C72.97 84.7026 65.567 84.4136 58.0305 80.6017C49.7985 76.4368 44.8719 67.2837 48.2668 58.2086C51.4372 49.7395 60.2317 44.3479 68.8568 42.7931C75.2284 41.6466 81.4118 42.3359 87.4069 44.8609Z" fill="#FEFEFE"/>
</g>
<defs>
<filter id="filter0_d_203_879" x="0.283936" y="0.974609" width="155.071" height="142.783" filterUnits="userSpaceOnUse" color-interpolation-filters="sRGB">
<feFlood flood-opacity="0" result="BackgroundImageFix"/>
<feColorMatrix in="SourceAlpha" type="matrix" values="0 0 0 0 0 0 0 0 0 0 0 0 0 0 0 0 0 0 127 0" result="hardAlpha"/>
<feOffset dx="8" dy="4"/>
<feGaussianBlur stdDeviation="9"/>
<feComposite in2="hardAlpha" operator="out"/>
<feColorMatrix type="matrix" values="0 0 0 0 0 0 0 0 0 0 0 0 0 0 0 0 0 0 0.1 0"/>
<feBlend mode="normal" in2="BackgroundImageFix" result="effect1_dropShadow_203_879"/>
<feBlend mode="normal" in="SourceGraphic" in2="effect1_dropShadow_203_879" result="shape"/>
</filter>
</defs>
</svg>
