<svg width="224" height="231" viewBox="0 0 224 231" fill="none" xmlns="http://www.w3.org/2000/svg">
<g filter="url(#filter0_d_203_855)">
<path d="M14.2078 73.6514C10.1789 83.3829 12.2474 90.8052 15.045 100.532" stroke="#9E7CBF" stroke-width="2"/>
<path d="M15.0454 100.531C21.8489 124.361 28.6883 148.179 35.5637 171.986C37.8352 179.849 41.9246 187.112 50.3561 189.485C52.0353 189.957 54.7744 190.157 58.5734 190.085C62.6688 190.009 66.7598 189.936 70.8462 189.865" stroke="#9E7CBF" stroke-width="2"/>
<path d="M70.8457 189.865C73.8279 189.775 76.2181 189.381 78.0163 188.683C80.8642 187.576 87.4283 184.759 97.7086 180.232" stroke="#E6E6FA" stroke-width="2"/>
<path d="M97.709 180.232C103.605 184.389 109.431 188.573 115.185 192.784C116.539 193.772 118.29 194.248 120.439 194.211C125.224 194.127 130.044 194.018 134.9 193.883" stroke="#9E7CBF" stroke-width="2"/>
<path d="M134.9 193.883C140.636 194.35 142.341 191.368 143.927 186.274C146.832 176.962 149.728 167.649 152.618 158.335C152.902 157.429 153.014 156.399 153.949 156C162.539 152.309 171.138 148.624 179.745 144.945C183.371 143.396 185.936 142.032 187.439 140.853C195.626 134.436 198.41 122.539 195.657 112.759C192.642 102.052 185.194 76.0851 173.311 34.8591C172.1 30.6598 171.012 27.6969 170.046 25.9705C165.948 18.6558 158.663 14.4661 150.057 15.6126" stroke="#E6E6FA" stroke-width="2"/>
<path d="M150.057 15.6124C145.319 15.6166 140.634 15.7091 136.002 15.89C133.129 16.0006 131.208 16.5737 128.671 17.663C94.8162 32.2081 60.9684 46.7797 27.1276 61.3777C20.7163 64.1432 16.8453 67.3394 14.2078 73.651" stroke="#9E7CBF" stroke-width="2"/>
<path d="M150.057 15.6123C149.455 16.0004 148.753 16.2967 147.95 16.5012C146.985 16.7492 146.268 16.9785 145.8 17.189C141.187 19.2652 133.084 22.8013 121.49 27.7975C95.2177 39.1126 68.9407 50.4165 42.6588 61.7093C35.1625 64.9304 30.3762 73.0462 29.511 80.8717C29.0755 84.803 29.4297 88.9498 30.5738 93.3122C32.5799 100.971 34.3526 107.422 35.8919 112.664C41.6255 132.196 47.152 151.789 52.831 171.337C55.168 179.384 60.6462 189.29 70.4259 189.291C70.5679 189.292 70.6794 189.351 70.7603 189.468C70.825 189.564 70.8534 189.696 70.8454 189.865" stroke="#C03845" stroke-width="2"/>
<path d="M14.7235 100.534L15.4159 100.162C15.592 100.08 15.6516 99.9538 15.5948 99.7845C14.0976 95.2426 12.2062 89.8912 12.4762 85.1152C12.6652 81.7656 13.2693 77.8951 14.6851 74.7276C14.9483 74.1304 14.8526 73.6026 14.0818 73.5857" stroke="#9E7CBF" stroke-width="2"/>
<path d="M134.9 193.883C125.986 188.401 117.521 181.656 108.985 175.578C108.907 175.523 108.815 175.489 108.72 175.479C108.624 175.469 108.527 175.484 108.438 175.523L97.7087 180.232" stroke="#E6E6FA" stroke-width="2"/>
<path d="M150.456 98.1914C153.714 76.3135 135.895 61.8909 115.277 64.4855C104.765 65.8061 95.4825 69.8692 87.4293 76.6747C76.5301 85.8913 68.5165 100.658 70.9413 115.185C73.5431 130.749 87.9454 139.647 102.948 138.818C116.682 138.057 127.359 132.437 137.624 123.416C137.693 123.356 137.774 123.313 137.862 123.288C137.95 123.264 138.043 123.259 138.134 123.274L152.727 126.038C152.91 126.071 152.953 126.008 152.857 125.849L145.494 113.453C145.423 113.331 145.42 113.207 145.486 113.083C147.995 108.543 149.652 103.579 150.456 98.1914Z" stroke="#F3A1A8" stroke-width="2"/>
<path d="M134.903 193.894C130.047 194.028 125.226 194.137 120.441 194.22C118.292 194.257 116.541 193.781 115.187 192.792C109.432 188.578 103.606 184.392 97.7089 180.233L108.438 175.523C108.527 175.484 108.624 175.469 108.72 175.479C108.815 175.489 108.907 175.523 108.985 175.578C117.522 181.659 125.988 188.409 134.903 193.894Z" fill="#9E7CBF"/>
<path d="M150.057 15.6129C149.456 16.001 148.753 16.2973 147.95 16.5018C146.985 16.7498 146.268 16.9791 145.8 17.1896C141.188 19.2658 133.084 22.8019 121.49 27.7981C95.2181 39.1132 68.941 50.4171 42.6591 61.71C35.1628 64.931 30.3765 73.0468 29.5114 80.8723C29.0758 84.8036 29.43 88.9504 30.5741 93.3128C32.5802 100.972 34.3529 107.422 35.8923 112.664C41.6258 132.197 47.1524 151.79 52.8314 171.337C55.1684 179.384 60.6466 189.291 70.4262 189.292C70.5682 189.293 70.6797 189.352 70.7606 189.468C70.8253 189.564 70.8537 189.697 70.8457 189.866C66.7593 189.936 62.6684 190.009 58.5729 190.086C54.7739 190.157 52.0349 189.957 50.3557 189.485C41.9242 187.113 37.8348 179.849 35.5632 171.986C28.6879 148.18 21.8485 124.361 15.045 100.532L15.9163 100.112C16.0795 100.033 16.133 99.9085 16.077 99.7392C14.5989 95.1951 12.7382 89.8389 12.9076 85.0926C13.026 81.7639 13.5234 77.9242 14.7915 74.7979C15.027 74.2083 14.9285 73.6817 14.2078 73.6515C16.8452 67.3399 20.7163 64.1436 27.1276 61.3781C60.9683 46.7801 94.8162 32.2086 128.671 17.6634C131.208 16.5742 133.129 16.0011 136.002 15.8905C140.634 15.7096 145.318 15.617 150.057 15.6129Z" fill="#9E7CBF"/>
<path d="M150.057 15.6123C158.662 14.4658 165.948 18.6555 170.046 25.9702C171.012 27.6966 172.1 30.6595 173.31 34.8588C185.193 76.0848 192.642 102.051 195.656 112.758C198.41 122.539 195.626 134.436 187.438 140.852C185.936 142.031 183.371 143.396 179.745 144.945C171.137 148.623 162.538 152.308 153.949 156C153.013 156.399 152.901 157.429 152.617 158.335C149.728 167.649 146.831 176.962 143.927 186.273C142.341 191.367 140.635 194.35 134.9 193.882C125.986 188.4 117.521 181.655 108.985 175.578C108.906 175.522 108.815 175.488 108.719 175.479C108.623 175.469 108.527 175.484 108.438 175.522L97.7084 180.232C87.4281 184.759 80.8639 187.576 78.016 188.683C76.2178 189.381 73.8276 189.775 70.8454 189.865C70.8534 189.696 70.825 189.564 70.7603 189.468C70.6794 189.351 70.5679 189.292 70.4259 189.291C60.6463 189.29 55.168 179.384 52.8311 171.337C47.152 151.789 41.6255 132.196 35.8919 112.664C34.3526 107.422 32.5799 100.971 30.5738 93.3122C29.4297 88.9498 29.0755 84.803 29.511 80.8717C30.3762 73.0462 35.1625 64.9304 42.6588 61.7093C68.9407 50.4165 95.2177 39.1126 121.49 27.7975C133.084 22.8013 141.187 19.2652 145.8 17.189C146.268 16.9785 146.985 16.7492 147.95 16.5012C148.753 16.2967 149.455 16.0003 150.057 15.6123ZM95.3925 140.842C98.6502 118.964 124.146 116.641 103.528 119.236C93.0158 120.556 122.963 112.474 114.91 119.28C104.011 128.497 108.948 99.3402 111.372 113.867C113.974 129.432 87.945 139.646 102.947 138.817C116.681 138.057 127.358 132.436 137.624 123.416C137.693 123.356 137.774 123.312 137.862 123.287C137.95 123.263 138.043 123.258 138.134 123.274L140.285 122.967C120.57 111.36 125.55 118.431 143.066 123.082L145.494 113.453C145.422 113.33 145.419 113.207 145.485 113.083C147.995 108.542 94.5885 146.229 95.3925 140.842Z" fill="#E6E6FA"/>
<path d="M91.0699 82.5427C91.3101 93.1261 98.4396 101.548 106.994 101.354C115.549 101.16 122.289 92.4231 122.049 81.8397C121.808 71.2563 114.679 62.8341 106.124 63.0283C97.5699 63.2224 90.8297 71.9593 91.0699 82.5427Z" fill="#FEFEFE"/>
<path d="M111.266 140.781L106.167 142.982L95.4232 147.513C95.2558 147.581 95.1454 147.529 95.092 147.358C92.6571 139.641 90.729 131.809 89.3075 123.863C87.6772 114.727 89.3746 107.288 97.1068 101.372C97.1718 101.322 97.2512 101.294 97.3327 101.293C97.4143 101.292 97.4937 101.317 97.559 101.365C103.29 105.462 110.154 105.417 115.835 101.402C119.745 98.6396 121.838 94.6267 123.616 90.1813C123.687 90.0072 123.815 89.9084 124.002 89.8848C134.523 88.6555 138.614 94.4921 142.218 103.684C144.843 110.388 147.007 117.214 148.71 124.162C148.733 124.255 148.723 124.354 148.68 124.44C148.638 124.526 148.566 124.594 148.478 124.633L111.266 140.781Z" fill="#FEFEFE"/>
</g>
<defs>
<filter id="filter0_d_203_855" x="0.956787" y="0.424805" width="222.728" height="216.788" filterUnits="userSpaceOnUse" color-interpolation-filters="sRGB">
<feFlood flood-opacity="0" result="BackgroundImageFix"/>
<feColorMatrix in="SourceAlpha" type="matrix" values="0 0 0 0 0 0 0 0 0 0 0 0 0 0 0 0 0 0 127 0" result="hardAlpha"/>
<feOffset dx="8" dy="4"/>
<feGaussianBlur stdDeviation="9"/>
<feComposite in2="hardAlpha" operator="out"/>
<feColorMatrix type="matrix" values="0 0 0 0 0 0 0 0 0 0 0 0 0 0 0 0 0 0 0.1 0"/>
<feBlend mode="normal" in2="BackgroundImageFix" result="effect1_dropShadow_203_855"/>
<feBlend mode="normal" in="SourceGraphic" in2="effect1_dropShadow_203_855" result="shape"/>
</filter>
</defs>
</svg>
