<svg width="353" height="422" viewBox="0 0 353 422" fill="none" xmlns="http://www.w3.org/2000/svg">
<g filter="url(#filter0_d_203_833)">
<path d="M61.0722 51.509C45.7468 66.3495 43.6132 81.8096 40.9789 102.139" stroke="#9E7CBF" stroke-width="2"/>
<path d="M40.9788 102.139C34.4302 151.905 27.9577 201.678 21.5611 251.459C19.4503 267.901 21.2 284.694 34.9587 295.894C37.6994 298.123 42.6286 300.701 49.7463 303.628C57.419 306.785 65.0809 309.943 72.732 313.104" stroke="#9E7CBF" stroke-width="2"/>
<path d="M72.7318 313.104C78.3465 315.339 83.106 316.531 87.0101 316.682C93.1944 316.919 107.662 316.97 130.414 316.836" stroke="#E6E6FA" stroke-width="2"/>
<path d="M130.414 316.836C138.024 329.309 145.481 341.776 152.784 354.239C154.503 357.165 157.374 359.459 161.398 361.121C170.358 364.819 179.404 368.498 188.538 372.159" stroke="#9E7CBF" stroke-width="2"/>
<path d="M188.538 372.159C198.82 377.648 204.392 373.478 211.443 365.289C224.34 350.323 237.224 335.349 250.096 320.365C251.352 318.911 252.39 317.087 254.45 317.098C273.387 317.156 292.335 317.234 311.295 317.33C319.282 317.371 325.147 316.901 328.889 315.92C349.273 310.59 364.029 290.722 366.789 270.327C369.81 248.001 376.88 193.745 388 107.558C389.133 98.7787 389.497 92.3959 389.092 88.4094C387.368 71.5152 377.202 57.8607 360.286 53.0608" stroke="#E6E6FA" stroke-width="2"/>
<path d="M360.286 53.0604C351.476 49.2515 342.694 45.6502 333.942 42.2564C328.512 40.1475 324.482 39.6658 318.889 39.6468C244.257 39.4114 169.616 39.2309 94.9676 39.1052C80.8252 39.0811 71.0568 41.9034 61.0719 51.509" stroke="#9E7CBF" stroke-width="2"/>
<path d="M360.286 53.0595C358.855 53.2963 357.312 53.2813 355.654 53.0146C353.661 52.6981 352.144 52.547 351.104 52.5611C340.86 52.7046 322.953 52.75 297.382 52.6973C239.443 52.5661 181.504 52.4104 123.565 52.2301C107.039 52.1788 91.6078 63.4066 83.6973 77.2532C79.7215 84.2085 77.04 92.2005 75.6528 101.229C73.2126 117.079 71.3119 130.494 69.9506 141.476C64.8747 182.394 59.3651 223.258 54.176 264.16C52.0381 280.997 54.2402 303.82 72.4141 311.699C72.6774 311.815 72.8372 312.014 72.8936 312.296C72.9365 312.526 72.8826 312.795 72.7319 313.103" stroke="#C03845" stroke-width="2"/>
<path d="M40.3788 101.885L41.9651 101.752C42.3589 101.74 42.5712 101.554 42.602 101.193C43.4776 91.5467 44.2726 80.0779 48.6209 71.4195C51.6699 65.3467 55.9099 58.6401 61.0922 53.8938C62.0623 52.9957 62.3095 51.9379 60.8906 51.2856" stroke="#9E7CBF" stroke-width="2"/>
<path d="M188.538 372.159C176.388 354.792 166.088 335.438 155.119 317.269C155.018 317.103 154.875 316.966 154.705 316.871C154.535 316.776 154.343 316.725 154.148 316.725L130.414 316.836" stroke="#E6E6FA" stroke-width="2"/>
<path d="M294.518 206.849C318.193 168.813 296.694 127.659 256.287 115.875C235.687 109.863 215.163 109.938 194.716 116.099C167.037 124.45 140.251 145.438 133.058 174.389C125.357 205.41 144.957 233.546 173.506 244.088C199.642 253.736 224.012 251.889 250.355 243.393C250.53 243.337 250.717 243.321 250.9 243.347C251.084 243.372 251.26 243.438 251.416 243.54L276.311 260.429C276.624 260.637 276.756 260.555 276.706 260.183L273.005 231.216C272.971 230.93 273.065 230.699 273.287 230.522C281.607 224.105 288.684 216.214 294.518 206.849Z" stroke="#F3A1A8" stroke-width="2"/>
<path d="M188.535 372.182C179.401 368.52 170.355 364.84 161.395 361.141C157.371 359.478 154.5 357.183 152.782 354.256C145.479 341.788 138.023 329.316 130.414 316.838L154.148 316.725C154.343 316.725 154.535 316.776 154.705 316.871C154.875 316.966 155.018 317.103 155.119 317.269C166.087 335.446 176.385 354.808 188.535 372.182Z" fill="#9E7CBF"/>
<path d="M360.285 53.061C358.855 53.2977 357.311 53.2828 355.654 53.0161C353.66 52.6996 352.144 52.5485 351.104 52.5626C340.86 52.7061 322.952 52.7514 297.381 52.6988C239.442 52.5676 181.504 52.4118 123.565 52.2316C107.039 52.1802 91.6074 63.4081 83.6969 77.2547C79.7211 84.21 77.0396 92.202 75.6524 101.231C73.2122 117.08 71.3115 130.496 69.9502 141.477C64.8743 182.396 59.3647 223.26 54.1756 264.161C52.0377 280.998 54.2398 303.821 72.4137 311.7C72.677 311.816 72.8368 312.015 72.8932 312.297C72.9361 312.528 72.8823 312.797 72.7315 313.104C65.0804 309.944 57.4185 306.785 49.7458 303.629C42.6281 300.702 37.6989 298.124 34.9582 295.894C21.1995 284.694 19.4498 267.901 21.5606 251.46C27.9572 201.679 34.4297 151.905 40.9783 102.139L42.9356 102.061C43.3025 102.045 43.5021 101.858 43.5344 101.498C44.4471 91.8623 45.3032 80.4095 49.4406 71.7252C52.3416 65.6343 56.3584 58.899 61.2331 54.1103C62.1457 53.2043 62.3866 52.1462 61.0716 51.5096C71.0565 41.904 80.8249 39.0817 94.9674 39.1058C169.616 39.2315 244.256 39.412 318.889 39.6474C324.481 39.6664 328.512 40.1481 333.942 42.2571C342.694 45.6508 351.475 49.2521 360.285 53.061Z" fill="#9E7CBF"/>
<path d="M360.285 53.0595C377.201 57.8595 387.367 71.5139 389.091 88.4082C389.496 92.3947 389.132 98.7774 387.999 107.556C376.88 193.744 369.809 248 366.788 270.326C364.028 290.721 349.272 310.589 328.888 315.919C325.146 316.9 319.281 317.37 311.294 317.329C292.335 317.232 273.386 317.155 254.45 317.097C252.39 317.086 251.352 318.909 250.095 320.364C237.223 335.347 224.339 350.322 211.442 365.287C204.391 373.477 198.82 377.647 188.537 372.158C176.387 354.791 166.087 335.437 155.118 317.268C155.017 317.102 154.875 316.965 154.704 316.87C154.534 316.775 154.342 316.724 154.147 316.724L130.413 316.835C107.662 316.969 93.1938 316.917 87.0095 316.681C83.1054 316.53 78.3459 315.337 72.7312 313.103C72.8819 312.795 72.9358 312.526 72.8929 312.296C72.8365 312.014 72.6766 311.815 72.4134 311.699C54.2394 303.82 52.0373 280.997 54.1752 264.16C59.3643 223.258 64.874 182.394 69.9499 141.476C71.3111 130.494 73.2118 117.079 75.652 101.229C77.0393 92.2005 79.7208 84.2085 83.6966 77.2532C91.607 63.4066 107.039 52.1788 123.564 52.2301C181.503 52.4104 239.442 52.5661 297.381 52.6973C322.952 52.75 340.859 52.7046 351.104 52.5611C352.143 52.547 353.66 52.6982 355.654 53.0146C357.311 53.2813 358.855 53.2963 360.285 53.0595ZM244.394 196.113C268.069 158.077 212.083 208.339 171.675 196.555C151.075 190.543 199.726 182.68 179.278 188.842C151.6 197.192 208.407 140.362 201.213 169.312C193.513 200.334 208.83 146.451 237.38 156.992C263.516 166.64 224.011 251.889 250.354 243.393C250.53 243.337 250.716 243.321 250.9 243.347C251.083 243.372 235.059 227.709 251.416 243.54L223.449 255.569C160.498 215.553 175.855 169.174 230.512 223.976L227.099 212.59L244.202 216.485C198.31 186.3 188.565 177.432 247.973 213.983C256.293 207.567 238.56 205.478 244.394 196.113Z" fill="#E6E6FA"/>
<path d="M176.765 228.781L156.538 204.585C149.115 195.8 144.015 185.867 143.469 174.199C142.753 158.979 147.68 145.563 158.251 133.952C173.167 117.587 196.679 112.348 214.979 126.86C216.823 128.317 219.4 131.549 222.711 136.558C222.935 136.9 223.181 136.913 223.45 136.597C251.683 102.63 301.032 120.675 294.43 166.641C291.966 183.743 282.422 195.378 269.783 206.766C248.892 225.581 227.908 244.345 206.83 263.058C206.762 263.119 206.683 263.165 206.597 263.195C206.51 263.224 206.419 263.237 206.328 263.231C206.237 263.225 206.149 263.201 206.067 263.16C205.985 263.119 205.913 263.063 205.853 262.994L176.765 228.781Z" fill="#FEFEFE"/>
</g>
<defs>
<filter id="filter0_d_203_833" x="9.81592" y="24.1055" width="406.436" height="373.542" filterUnits="userSpaceOnUse" color-interpolation-filters="sRGB">
<feFlood flood-opacity="0" result="BackgroundImageFix"/>
<feColorMatrix in="SourceAlpha" type="matrix" values="0 0 0 0 0 0 0 0 0 0 0 0 0 0 0 0 0 0 127 0" result="hardAlpha"/>
<feOffset dx="8" dy="4"/>
<feGaussianBlur stdDeviation="9"/>
<feComposite in2="hardAlpha" operator="out"/>
<feColorMatrix type="matrix" values="0 0 0 0 0 0 0 0 0 0 0 0 0 0 0 0 0 0 0.1 0"/>
<feBlend mode="normal" in2="BackgroundImageFix" result="effect1_dropShadow_203_833"/>
<feBlend mode="normal" in="SourceGraphic" in2="effect1_dropShadow_203_833" result="shape"/>
</filter>
</defs>
</svg>
